<?xml version="1.0" encoding="UTF-8"?><svg id="Layer_1" xmlns="http://www.w3.org/2000/svg" viewBox="0 0 50 50"><defs><style>.cls-1{fill:#f2f2f7;}.cls-2{fill:#ff3c2f;}.cls-3{fill:#c61414;}.cls-4{fill:#d6d6d6;}.cls-5{fill:#0b0c0a;}.cls-6{fill:#948b8e;}.cls-7{stroke-linecap:round;}.cls-7,.cls-8{fill:none;stroke:#231f20;stroke-linejoin:round;stroke-width:.81px;}</style></defs><g><path class="cls-3" d="M18.89,25.08l-1.11-.08c.22-.22,.46-.47,.7-.73l.42,.81Z"/><path class="cls-3" d="M19.62,26.92c-.69-.1-2.03-.65-2.77-.96l.19-.19,2.3,.16,.48,.91c-.07,.04-.14,.08-.19,.08Z"/><path class="cls-3" d="M20.45,26.31l-.17-.33,.47,.04c-.11,.1-.21,.2-.3,.29Z"/><path class="cls-3" d="M21.03,23.03l-1.5,.08c.34-.38,.67-.75,.95-1.08l.55,1Z"/><path class="cls-5" d="M7.15,34.62c.38-.68,.93-1.34,1.62-1.93,.26,.43,.88,1.06,2.27,1.15,1.46,.11,4.06-.28,5.96-.56,.65-.09,1.2-.18,1.55-.21,1.05-.11,2.94,.98,3.64,1.68-.38,.93-.7,1.81-.83,2.18-3.33,1.31-9.49,.83-11.04,.47-1.22-.29-1.27-.58-1.36-1.1-.04-.19-.07-.39-.15-.61-.25-.74-1.06-.98-1.66-1.07Z"/><path class="cls-3" d="M19.85,25.15l-.63-1.2,2.24-.13,.49,.9c-.16,.19-.32,.37-.48,.55l-1.62-.11Z"/><path class="cls-3" d="M22.51,24.06l-.16-.29,.42-.03c-.09,.11-.17,.21-.26,.32Z"/><path class="cls-3" d="M23.46,22.89l-1.53,.08-.88-1.6c.29-.34,.5-.59,.63-.74,.15,.02,.55,.12,1.49,.53,.39,.17,.78,.37,1.17,.59-.29,.38-.59,.77-.89,1.14Z"/><path class="cls-2" d="M25.33,16.02c-.32-.12-.62-.22-.91-.29,.31-.29,.73-.46,1.23-.32-.14,.21-.25,.42-.33,.61Z"/><path class="cls-3" d="M17.26,28.93c-.66-.17-1.76-.62-2.42-.91,.33-.33,.66-.68,1-1.03,.12-.13,.26-.28,.4-.41,.64,.28,2.37,1,3.24,1.14,.03,0,.05,0,.08,0,.16,0,.37-.09,.59-.22l.35,.67c.08,.14,.22,.22,.37,.22,.06,0,.12,0,.18-.04,.2-.1,.28-.35,.18-.55l-.41-.79c.31-.26,.64-.58,.97-.93l1.16,.08h.03c.06,0,.12-.02,.17-.04,0,0,.02,0,.02,0,.02,0,.03-.02,.04-.03,.02,0,.04-.03,.06-.05s.03-.04,.05-.06c0-.02,.02-.04,.03-.07,.01-.02,.02-.05,.02-.08,.01,0,.01-.02,.01-.04v-.03s0-.06-.01-.08c0-.03,0-.05-.02-.08,0,0,0-.02,0-.03l-.42-.76c.32-.37,.64-.76,.94-1.14l1.9-.11c.22,0,.39-.2,.38-.43,0-.22-.21-.38-.43-.38l-1.18,.06c.18-.23,.35-.45,.51-.67,.71,.43,1.4,.89,2.05,1.31,.12,.08,.21,.14,.32,.22l-.3,1.06c-.16,.55-.48,.67-1.37,.93-.3,.09-.64,.19-1,.33-1.51,.56-1.93,.91-2.52,2.06-.31,.63-.6,.71-1.21,.88-.21,.06-.45,.12-.72,.22-.87,.3-1.89,.04-2.79-.18l-.24-.06Z"/><path class="cls-2" d="M27.98,17.31c-.64-.37-1.28-.71-1.91-.98,.16-.36,.5-.95,1.16-1.31,.23-.12,.49-.11,.81,0,.52,.22,1.03,.74,1.36,1.34-.63,.22-1.1,.59-1.42,.94Z"/><path class="cls-2" d="M29.85,31.63c-1.1,1.2-1.58,1.23-2.59,1.26h-.25c.22-.47,.63-1.12,1.26-1.38,.46-.19,.98-.14,1.57,.12Z"/><path class="cls-2" d="M9.4,32.18c.33-.23,.67-.45,1.02-.65,1.6-.87,2.22-1.41,3.35-2.47,.15-.13,.3-.29,.45-.43,.56,.25,1.99,.87,2.83,1.07l.24,.06c.66,.16,1.38,.34,2.1,.34,.39,0,.79-.05,1.16-.19,.25-.08,.47-.14,.66-.19,.68-.19,1.25-.34,1.73-1.29,.46-.92,.69-1.16,2.07-1.67,.35-.13,.67-.22,.95-.31,.88-.26,1.64-.48,1.93-1.49l.23-.83c.71,.46,1.27,.77,1.72,.89,.12,.39,.34,1.38,.05,2.44-.19,.66-.69,.71-1.87,.67-.5-.02-1.01-.04-1.52,.05-1.27,.21-1.92,1.57-2.44,2.68-.2,.42-.39,.81-.58,1.07-.27,.4-.64,1.18-.99,2.03-.95-.83-2.78-1.83-4.04-1.7-.37,.04-.92,.13-1.59,.22-1.75,.26-4.41,.66-5.78,.56-1.12-.08-1.56-.58-1.69-.86Z"/><path class="cls-2" d="M20.59,20.06c-.08,0-.12-.03-.12-.03-.17-.42,1.35-2.28,2.09-3.17l.23-.28c.14-.17,.38-.23,.69-.22h.02c1.84,.07,6.3,2.87,8.76,4.8,.48,.38,.94,.76,.95,1.01,0,.31-.64,.89-.85,1.07-1.24,1.12-2.12,1.06-2.15,1.05h0c-.46-.04-1.58-.79-2.66-1.5-1.26-.84-2.69-1.78-4.06-2.39-1.62-.7-2.03-.72-2.46-.39-.06,.05-.11,.09-.45,.03Z"/><path class="cls-5" d="M30.22,16.18c-.08-.17-.18-.33-.28-.49l1.57-.86c1.49-.83,1.73-1.39,2-2.27,.09-.26,.17-.54,.33-.87l.15-.31c.52-1.07,.75-1.57,2.2-2.46,.51-.31,.9-.42,1.09-.31,.08,.04,.15,.13,.21,.24-.2,.08-.35,.19-.44,.3-.41,.49-.45,1.37-.12,2.71,.06,.21,.12,.44,.18,.68,.36,1.28,.76,2.74,.19,3.94-.53,1.1-2.72,.54-4.85,0l-.77-.2c-.54-.13-1.02-.16-1.46-.11Z"/><path class="cls-2" d="M28.7,17.73c.45-.44,1.33-1.01,2.79-.66l.75,.2c2.46,.63,4.98,1.27,5.8-.44,.69-1.47,.23-3.15-.14-4.51-.06-.23-.12-.45-.18-.66-.36-1.46-.13-1.89-.05-1.98l.03-.03c.02,.18,.04,.37,.05,.59,.05,.91,.41,1.77,.84,2.57h0c.2,.37,.41,.71,.62,1.03-.05,.59-.27,2.99-.84,4.14-.54,1.1-2.03,1.34-4.12,1.34h-.26c-1.34,0-2.03,.17-2.39,.34-.75-.54-1.78-1.25-2.9-1.94Z"/><path class="cls-4" d="M38.56,10.21c0-.22-.03-.45-.06-.67,.52-.2,.58-.78,.6-1.06,.02-.15,.03-.39,.1-.42,.29-.15,.63-.16,.69-.11,0,0,.04,.12-.13,.45l-.06,.11c-.42,.82-.8,1.61-1.04,2.32-.04-.21-.08-.41-.09-.62Z"/><path class="cls-6" d="M39.09,18.35c.44-.9,.69-2.38,.82-3.41l.5,.78c.48,.75,1.05,1.64,1.6,2.48,.33,3.1,.09,3.23-1.66,4.16-.67,.36-1.12,.49-1.52,.62-.84,.25-1.3,.44-2.15,1.65-1.25,1.8-1.69,2.39-2.66,2.72-.91,.31-1.55,1.11-2.53,2.34-.32,.4-.68,.86-1.09,1.34-.88-.45-1.7-.54-2.43-.24-1.12,.46-1.66,1.66-1.85,2.2-.89,.1-1.12,.35-1.51,.96-.28,.44-.7,1.1-1.83,2.16-.1,.1-.23,.19-.35,.27,.52-1.37,1.29-3.33,1.73-3.96,.23-.33,.43-.76,.64-1.2,.47-.96,.98-2.07,1.84-2.22,.43-.07,.91-.06,1.36-.04,1.07,.04,2.31,.09,2.68-1.25,.3-1.06,.16-2.04,.03-2.62,.5-.09,1.27-.38,2.21-1.21,.68-.62,1.12-1.14,1.1-1.71-.02-.61-.53-1.05-1.25-1.62,0,0-.14-.11-.34-.26,.34-.06,.86-.12,1.64-.12,2.01,0,4.21-.12,5.02-1.8Z"/><path class="cls-1" d="M44.74,26.02c-2.2,3.22-4.74,3.48-6.42,3.66-.43,.04-.81,.08-1.11,.16-1.24,.32-3.56,2.17-7.76,6.19-2.75,2.64-5.46,3.57-9.19,4.29-3.78,.72-7.83-.34-10.54-1.19-1.48-.47-2.44-1.13-2.83-1.98-.3-.64-.22-1.26-.06-1.75,.46,.04,1.1,.21,1.22,.57,.06,.18,.09,.34,.11,.49,.14,.79,.36,1.37,1.98,1.75,.73,.17,2.81,.43,5.18,.43,2.98,0,6.4-.41,8.03-1.93,1.21-1.13,1.66-1.85,1.96-2.32,.32-.51,.36-.57,1.15-.63,.32-.02,.59-.03,.84-.04,1.3-.03,1.99-.13,3.53-1.93,.52-.6,.94-1.13,1.31-1.6,.92-1.15,1.47-1.85,2.15-2.08,1.26-.43,1.83-1.23,3.06-3.01,.73-1.04,1.03-1.14,1.72-1.34,.41-.13,.93-.29,1.66-.67,1.75-.92,2.29-1.42,2.2-3.54,.12,.16,.23,.31,.33,.44,.24,.31,.58,.59,.93,.88,1.28,1.06,2.62,2.17,.57,5.17Z"/></g><g><path class="cls-8" d="M21.47,20.25s-2.59,3.09-4.11,4.61c-1.52,1.51-2.7,2.85-3.85,3.92s-1.73,1.57-3.27,2.41-3.06,2.22-3.71,3.79-.24,3.49,3.06,4.53,7.12,1.89,10.74,1.2c3.63-.69,6.5-1.62,9.4-4.39,2.89-2.77,6.14-5.72,7.58-6.09s4.91,.21,7.77-3.98c2.86-4.19-.51-5.23-1.5-6.52s-2.69-4.04-3.42-5.17-1.91-2.7-1.99-4.32-.49-2.67-2.18-1.64-1.87,1.63-2.5,2.93c-.63,1.31-.2,1.88-2.16,2.96l-1.97,1.08"/><path class="cls-8" d="M25.57,16.54c.06-.27,.45-1.32,1.48-1.88s2.56,.72,3,2.19"/><path class="cls-8" d="M27.99,17.96s1.08-1.91,3.6-1.28,5.34,1.54,6.08-.03,.02-3.46-.34-4.88-.35-2.66,.7-2.57,.37-1.18,.98-1.5,1.73-.33,1.11,.89-1.67,3.2-1.18,4.03"/><path class="cls-8" d="M23.67,16c-.05,.13,.91-1.76,2.63-.75"/><path class="cls-8" d="M30.18,24.71s1.03,.14,2.47-1.15,1.2-1.67-.13-2.71-8.61-6.27-10.04-4.52c-1.43,1.75-3.29,3.91-1.95,4.14s.1-.85,2.81,.33c2.71,1.18,5.72,3.81,6.84,3.92Z"/><path class="cls-8" d="M6.53,34.97s1.6-.02,1.9,.85-.11,1.52,1.8,1.97,10.19,1.07,12.84-1.4c2.65-2.47,1.55-2.91,3.36-3.05s2.28,.29,4.09-1.83,2.53-3.42,3.64-3.8,1.6-1.06,2.85-2.86c1.25-1.8,1.56-1.11,3.52-2.14,1.96-1.03,2.23-1.33,1.86-4.66"/><path class="cls-8" d="M8.96,32c-.07,.05,.18,1.3,2.11,1.44s6.07-.63,7.44-.77c1.36-.15,3.64,1.32,4.18,2.03"/><path class="cls-8" d="M21.68,37.24s1.44-4.05,2.16-5.08,1.24-3.33,2.74-3.59,3.3,.5,3.72-1-.12-2.87-.12-2.87"/><path class="cls-8" d="M31.58,20.15s.38-.42,2.5-.41c2.11,.01,3.97-.17,4.65-1.57s.89-4.42,.89-4.42"/><path class="cls-8" d="M26.43,33.34s.98-3.67,4.09-1.83"/><path class="cls-8" d="M14.15,28.16s2,.91,3.02,1.16,2.21,.6,3.27,.23,1.64-.25,2.16-1.29,.86-1.34,2.29-1.87,2.33-.47,2.63-1.53,.38-1.35,.38-1.35"/><path class="cls-8" d="M24.95,21.62s-4.37,5.86-5.39,5.7-3.41-1.23-3.41-1.23"/><line class="cls-7" x1="18.58" y1="23.57" x2="20.87" y2="28"/><line class="cls-7" x1="25.75" y1="23.16" x2="18.58" y2="23.57"/><line class="cls-7" x1="22.99" y1="25.77" x2="16.87" y2="25.35"/><line class="cls-7" x1="20.56" y1="21.32" x2="22.99" y2="25.77"/></g></svg>