<?xml version="1.0" encoding="UTF-8"?><svg id="Layer_1" xmlns="http://www.w3.org/2000/svg" viewBox="0 0 50 50"><defs><style>.cls-1{stroke-linejoin:round;}.cls-1,.cls-2{fill:none;stroke:#231f20;stroke-width:.91px;}.cls-3{fill:#ff9f9f;}.cls-4{fill:#ffc880;}.cls-5{fill:#7be0ff;}.cls-6{fill:#d6d6d6;}.cls-2{stroke-miterlimit:10;}</style></defs><g><path class="cls-4" d="M11.08,30.52c1,.24,1.92,.79,2.02,.9,0,.11,0,.22,0,.33-.55,.26-1.74,.84-3.02,1.51-.44-1.93-.28-2.53-.16-2.71,.18-.02,.37-.06,.58-.12,.17,0,.36,.03,.6,.08Z"/><path class="cls-5" d="M9.19,29.57s-.07-.08-.09-.08c.12-.1,.34-.2,.61-.33,.84-.42,2.09-1.04,2.66-1.91,.24-.36,.67-.31,1.01-.2l-.37,.52c-.13,.19-.19,.4-.22,.62-.38,.26-1.01,.67-1.88,1.1-.21,.1-.4,.18-.57,.24-.27,0-.51,.04-.72,.14-.19,0-.35-.03-.44-.1Z"/><path class="cls-3" d="M13.23,30.46c-.1-.07-.2-.14-.32-.2-.29-.16-.66-.32-1.03-.45,.45-.24,.83-.47,1.11-.67,.09,.15,.21,.29,.37,.39,.03,.03,.08,.04,.12,.06-.08,.22-.17,.52-.25,.87Z"/><path class="cls-5" d="M13.09,25.42c.65-.49,.96-1.19,1.26-1.87,.17-.38,.32-.74,.54-1.05,.03-.06,.07-.1,.09-.14,.05,.14,.12,.37,.2,.75,.15,.72-.11,1.88-.29,2.5-.35,.06-.67,.26-.89,.57l-.07,.09c-.47-.32-.86-.67-.85-.84Z"/><path class="cls-6" d="M15.45,26.57c.22,.16,.28,.48,.12,.7l-.99,1.41c-.07,.1-.19,.18-.32,.2-.13,.02-.27,0-.38-.08-.23-.16-.28-.48-.12-.7l.99-1.41c.15-.22,.47-.28,.7-.12Z"/><path class="cls-5" d="M16.32,29.98c-.83,.83-1.39,1.72-1.69,2.64-.03,.07-.2,.2-.35,.18-.17-.03-.28-.33-.29-.76-.03-1.11,.24-1.91,.39-2.27h.02c.38-.07,.7-.27,.91-.58l.29-.41c.39,.25,.81,.61,.86,.89,0,.05,.02,.15-.14,.31Z"/><path class="cls-4" d="M9.36,39.53c-1.57-.04-2.64-.45-3-1.14-.25-.47-.16-1.09,.23-1.7,.59-.91,4.08-2.77,6.59-3.97,.21,.76,.73,.93,.97,.97,.05,0,.11,0,.16,0,.26,0,.52-.09,.73-.23,.94,1.21,2.57,3.5,2.95,4.9-3.15,.91-6.49,1.21-8.63,1.15Z"/><path class="cls-3" d="M15.97,25.83s-.12-.05-.17-.08c.07-.27,.16-.65,.24-1.07l1.58,.93c-.53,.21-.98,.43-1.3,.6-.09-.14-.2-.27-.35-.37Z"/><path class="cls-5" d="M16.53,27.1c.55-.29,2.13-1.08,3.39-1.2,.78-.07,1.18-.08,1.41-.06-.02,.03-.05,.06-.09,.1-.3,.31-.72,.6-1.11,.88-.74,.53-1.51,1.06-1.79,1.89-.17,.15-1.14-.11-2.21-.68l.17-.24c.15-.21,.21-.45,.23-.69Z"/><path class="cls-3" d="M18.87,38.09c-.55-1.85-2.67-4.63-3.29-5.41,.28-.72,.74-1.41,1.39-2.07,.4-.41,.43-.82,.39-1.08,0,0,0,0,0-.02,.48,.13,.94,.19,1.28,.06,.28-.11,.48-.31,.58-.59,.18-.54,.8-.96,1.45-1.42,.14-.1,.28-.21,.43-.31,3.11,1.11,7.24,3.13,7.79,4.57-1.46,1.22-3.35,2.59-5.84,4.3-1.2,.84-2.65,1.48-4.17,1.98Z"/><path class="cls-4" d="M26.6,14.72s-.03,0-.05,0l1.67-.39c-.09,.25-.14,.47-.17,.65-.66-.1-1.16-.18-1.45-.25Z"/><path class="cls-4" d="M30.14,22.88c-.58-.74-1.09-2.31-1.39-3.55,1.44,.35,3.07,.74,4.5,1.07-.79,.64-2.08,1.67-3.1,2.48Z"/><path class="cls-4" d="M29.57,31.21c-.71-1.23-2.69-2.42-4.58-3.32,1.22-.91,3.62-2.72,4.56-3.41,1.1-.84,4.06-3.2,4.8-3.81,.82,.2,1.47,.35,1.86,.44-.19,1.71-.56,4.22-.91,4.9-1.43,1.05-2.88,2.18-4.21,3.69-.44,.5-.94,.99-1.52,1.51Z"/><path class="cls-6" d="M37.91,28.33c.23-.08,.45-.16,.68-.24l-.05,.6-.63-.36Z"/><path class="cls-4" d="M31.65,15.44c-.97-.12-1.9-.23-2.7-.34,.11-.61,.52-1.82,2.04-2.99,1.83-1.41,5.97-3.01,7.7-2.24,.48,.21,.72,.59,.76,1.17v.09c-.56-.27-1.3-.38-2.2-.31-1.33,.11-2.75,.58-3.89,1.29-1.55,.96-1.82,2.34-1.7,3.32Z"/><path class="cls-3" d="M40.39,20.43c-.06,1.03-.16,1.98-.29,2.25l.1,.04c-.39,.25-.77,.49-1.12,.72-1.05,.67-1.96,1.24-2.57,1.68,.29-1.27,.5-2.94,.6-3.8,.41,.09,.93,.17,1.45,.17,.64,0,1.24-.13,1.52-.54,.09-.14,.2-.32,.31-.52Z"/><path class="cls-3" d="M24.87,17.46c-.36-.08-.81-.18-.88-.22,0-.73,.33-1.69,.61-2.08l.25-.06s.06,.03,.09,.04c.29,.12,.72,.3,1.46,.47,1.67,.39,9.81,1.31,12.76,1.5,1.47,.1,1.7,.4,1.7,.42-.04,.04-.06,.07-.08,.12,0,.02-.98,2.11-1.45,2.79-.14,.2-1.28,.2-2.51-.12h0c-.1-.02-10.13-2.42-11.28-2.71-.24-.06-.47-.11-.67-.16Z"/><path class="cls-3" d="M38.86,16.17c.67-.89,1.59-2.58,1.49-4.95,.76,.77,1.59,2.36,.73,5.36-.42-.2-1.02-.33-1.86-.38-.11,0-.23-.02-.36-.03Z"/><path class="cls-3" d="M39.53,27.77c1.62-.58,3.25-1.24,4.28-2.25l-.05,.51-4.31,2.56,.08-.82Z"/><path class="cls-3" d="M39.57,24.2c1.87-1.18,3.97-2.52,5.08-3.56-.09,1.06-.34,2.54-1,3.66-.82,1.38-3.2,2.2-5.31,2.91-.92,.32-1.79,.62-2.52,.95-1.23,.56-2.06,1.38-3.2,2.53-1.26,1.25-2.84,2.81-5.74,4.86-4.04,2.85-8.69,5.46-15.34,5.2-.96-.04-1.73-.16-2.36-.34,.06,0,.1,0,.16,0,.21,0,.42,0,.64,0,4.16,0,9.96-1.08,13.58-3.58,4.04-2.78,6.54-4.65,8.22-6.56,1.46-1.66,3.12-2.86,4.72-4.04l.56-.41c.58-.43,1.51-1.02,2.52-1.65Z"/><path class="cls-4" d="M41.38,18.51c.09-.2,.17-.36,.2-.44,.09-.11,.16-.26,.19-.43,1.73-.19,2.66,.26,2.91,.73,.26,.47-.08,.98-.3,1.25-.57,.66-1.85,1.57-3.23,2.48,.17-1.19,.22-2.99,.23-3.59Z"/></g><g><rect class="cls-2" x="13.71" y="25.87" width="1.91" height="3.63" rx=".95" ry=".95" transform="translate(18.62 -3.39) rotate(35.16)"/><path class="cls-2" d="M16.1,26.83s2.12-1.22,3.79-1.38c1.66-.16,2.58-.11,1.69,.8s-2.43,1.51-2.8,2.58-3.3-.66-3.3-.66c0,0,2.18,1.09,1.17,2.11s-1.4,1.9-1.59,2.46-1.48,.98-1.52-.71c-.04-1.69,.55-2.71,.55-2.71"/><path class="cls-2" d="M15.25,26s.62-1.85,.38-2.98-.49-1.7-1.11-.77-.8,2.16-1.7,2.82,1.35,1.87,1.35,1.87c0,0-1.49-.98-2.18,.08s-2.7,1.79-3.17,2.12,.04,1.69,2.3,.57c1.49-.74,2.33-1.42,2.33-1.42"/><path class="cls-2" d="M9.73,33.85c.01-.11-.91-3.11-.03-3.72s3.86,.69,3.85,1.3"/><path class="cls-2" d="M15.06,32.76s3.23,3.97,3.47,5.91"/><path class="cls-2" d="M21.01,26.74s8.41,2.94,8.38,5.39"/><line class="cls-2" x1="15.85" y1="24.05" x2="18.69" y2="25.7"/><path class="cls-2" d="M41.36,17.24c3.34-.5,4.69,1.11,3.36,2.68-1.33,1.57-6.17,4.27-7.94,5.57s-3.69,2.62-5.35,4.52-4.25,3.81-8.14,6.49-10.21,3.6-13.94,3.49c-3.73-.11-4.08-2.09-3.15-3.54,.94-1.45,7.33-4.4,7.33-4.4"/><path class="cls-2" d="M6.37,39.11s.81,1.94,5.15,2.1c6.4,.24,11.11-2.11,15.62-5.29,5.57-3.93,6.43-6.23,8.87-7.35s6.76-1.9,8.03-4.05c1.27-2.15,1.12-5.35,1.12-5.35"/><polyline class="cls-1" points="44.42 23.75 44.19 26.31 38.92 29.43 39.11 27.3"/><line class="cls-1" x1="36.73" y1="28.16" x2="38.92" y2="29.43"/><path class="cls-1" d="M36.71,20.76s2.51,.65,3-.07,1.48-2.86,1.48-2.86c0,0,.89-.99-2-1.18-2.9-.19-11.03-1.11-12.69-1.49s-1.66-.8-2.12-.42-.83,1.68-.84,2.49c0,.49,.72,.53,1.88,.83s11.29,2.71,11.29,2.71Z"/><line class="cls-1" x1="24.38" y1="14.74" x2="29.15" y2="13.64"/><path class="cls-1" d="M28.44,15.49s-.05-1.95,2.26-3.74,8.93-4.29,9.19-.74c.25,3.55-1.96,5.55-1.96,5.55"/><path class="cls-1" d="M39.66,10.17s3.59,1.45,1.7,7.07"/><path class="cls-1" d="M32.27,16.05s-.92-2.15,1.32-3.55c2.23-1.4,5.5-1.72,6.31-.42"/><path class="cls-1" d="M28.14,18.72s.77,3.95,2.03,4.83"/><path class="cls-1" d="M34.25,20.18s-3.69,2.98-4.97,3.94-5.3,3.97-5.3,3.97"/><path class="cls-1" d="M36.71,20.76s-.46,4.55-1.04,5.53"/><path class="cls-1" d="M40.92,18.4s-.06,3.74-.4,4.47"/></g></svg>