<?xml version="1.0" encoding="UTF-8"?>
<svg id="Layer_1" data-name="Layer 1" xmlns="http://www.w3.org/2000/svg" viewBox="0 0 50 50">
  <defs>
    <style>
      .cls-1 {
        fill: #e53833;
      }

      .cls-2 {
        fill: #231f20;
      }

      .cls-3 {
        fill: #3a3a3c;
      }
    </style>
  </defs>
  <path class="cls-2" d="M44.71,21.49c.15-.87-.05-2.12-.84-3.07-.52-.62-1.5-1.33-3.22-1.31,.1-.89,.17-1.83,.15-2.79-.04-2.13-1.79-3.15-3.25-3.54,.02-.86-.35-2.38-1.94-2.88-1.26-.39-2.06-.37-2.33,.08-.15,.25-.09,.57,.17,.82,.24,.24,.75,.9,1.1,1.36-.27,.03-.55,.08-.84,.16-1.18,.34-2.07,1.15-3.01,2.01-1.44,1.32-3.07,2.8-6.19,2.89-2.02-.57-3.64-.88-3.92-.54-.27,.34-2.03,3.75-1.65,4.45,.08,.15,.25,.24,.42,.22h.02c.11,0,.42,.05,.85,.13,.67,.61,4.28,3.88,5.94,4.53-.21,.52-.55,1.09-1.07,1.82-1.38,1.93-3.57,2.3-4.14,2.37-.95-.87-5.32-2.59-7.71-2.04-.03,0-.07,.02-.1,.04-.34,.2-3.3,2.03-3.53,3.42-.05,.3,.02,.58,.21,.8,.08,.1,.22,.14,.34,.11,0,0,.18-.05,.48-.1-.78,.88-1.8,2.57-1.17,4.95-1.79,.66-4.94,2.01-4.65,3.17,.02,.08,.03,.16,.05,.24,.07,.43,.2,.81,.58,1.12,1.59,1.87,4.35,2.49,7.3,2.49,5.67,0,12.04-2.28,12.14-2.32,3.05-1.14,5.67-3.71,7.19-7.07,1.07-2.36,2.44-2.76,4.93-3.48,.38-.11,.77-.22,1.19-.35,3.06-.94,5.16-2.24,6.43-3.98,1.09-1.49,.31-3.25,.08-3.69Zm-4.19-3.26c.02-.15,.04-.31,.06-.47,1.22-.04,2.16,.33,2.79,1.08,.69,.83,.84,1.95,.69,2.64-.08,.36-.59,.92-1.36,1.56-.48-.4-1.71-1.44-2.21-1.99-.27-.29-.11-1.58,.04-2.82Zm-6.64-9.92c.14-.04,.54-.09,1.53,.22,1.28,.4,1.46,1.6,1.48,2.11-.11-.02-.22-.03-.32-.04-.36-.23-.77-.38-1.22-.43-.26-.36-1.09-1.47-1.45-1.83-.01-.01-.02-.02-.03-.03Zm-2.74,4.51c.92-.84,1.71-1.57,2.74-1.86,1.14-.33,2.11-.14,2.72,.51,.3,.32,.49,.72,.57,1.17-3.22,1.61-4.66,4.82-4.76,5.03-.35,.09-.64,.15-.82,.18-.19-.26-.44-.42-.48-.45-.02-.01-.04-.02-.06-.03-1.43-.51-3.24-1.13-4.96-1.66,2.36-.46,3.77-1.73,5.03-2.88Zm6.07,.53c-.02,.29-.08,.58-.18,.87-.63,1.76-2.36,2.7-3.74,3.18,.52-.94,1.79-2.88,3.92-4.05Zm-16.15,1.8c.83-.12,6.22,1.56,9.75,2.82,.09,.06,.32,.25,.36,.44,.01,.05,.01,.13-.07,.25-.42,.58-1.92,2.24-2.18,2.53-.1,.04-.44,.13-.96-.24-.83-.59-7.01-2.07-8.43-2.23,.1-.71,1.14-3.01,1.53-3.57Zm.43,4.61c1.23,.27,2.75,.64,3.98,.99,.71,1.08,1,1.83,.86,2.64-.99-.4-3.16-2.15-4.84-3.63Zm-.37,9.09c.78-.1,3.02-.56,4.49-2.63,1.6-2.23,1.82-3.36,.79-5.19,.58,.18,1.01,.34,1.17,.46,.43,.31,.8,.4,1.09,.4,.39,0,.65-.17,.7-.21,.07-.08,1.79-1.97,2.27-2.63,.13-.18,.18-.38,.18-.58,1.12-.2,4.77-1.05,5.83-4.03,.38-1.07,.28-2.17-.25-3,1.09,.3,2.71,1.05,2.74,2.9,.03,1.33-.13,2.65-.28,3.82-.21,1.7-.34,2.83,.13,3.34,.5,.54,1.62,1.5,2.17,1.96-1.49,1.13-3.64,2.44-5.76,3.42-.12-.53-.41-1.37-1.14-1.83-.65-.41-1.49-.41-2.48,0-3.1,1.27-5.53,4.89-5.46,6.19,.05,.94,.01,3.9,0,4.59-1.67,1.36-4.14,2.36-7.52,3.06-.09-.73-.36-2.44-1.01-4.15-.84-2.22-3.14-2.85-5.18-3.41l-.36-.1c-.36-.1-.49-.19-.54-.19,.12-.15,.65-.41,1.19-.57,.85,.15,1.79,.44,2.74,.94,.08,.07,.23,.14,.47,.14,.29,0,.71-.11,1.31-.48,1.53-.93,2.5-1.64,2.68-2.24Zm6.85,2.37c-.05-.93,2.19-4.38,5.05-5.55,.79-.32,1.42-.34,1.89-.05,.61,.37,.82,1.18,.88,1.57-2.25,1.08-3.6,2.84-5.15,4.86-.75,.98-1.53,2-2.47,3.02-.06,.06-.13,.13-.19,.19,.01-1.14,.03-3.24,0-4.03Zm-22.42,7.69c.74,.15,2.28,.4,4.61,.4s5.22-.23,8.88-1c.05,.3,.08,.55,.11,.73-2.04,.38-4.38,.65-7.07,.83-5.66,.37-6.36-.3-6.53-.95Zm4.7-9.18c.14-.81,2-2.22,3.18-2.94,2.36-.51,6.74,1.4,7.08,1.85,0,.16-.33,.61-2.41,1.88-.75,.45-1.02,.38-1.01,.41-.03-.03-.06-.05-.09-.07-1.81-.97-3.55-1.21-4.85-1.21-.88,0-1.55,.11-1.91,.19,0-.03,0-.07,0-.11Zm1.44,.6c.28-.01,.59-.02,.92,0-.32,.2-.55,.44-.55,.72,0,.48,.59,.7,1.03,.82l.36,.1c.55,.15,1.11,.31,1.64,.49-.98,.67-3.17,2.09-4.61,2.56-.09,.03-.23,.08-.39,.13-.74-2.86,1.19-4.52,1.6-4.84Zm-1,5.33c1.76-.59,4.46-2.43,5.14-2.9,1.05,.46,1.94,1.11,2.36,2.23,.36,.94,.59,1.9,.75,2.67-7.61,1.6-12.28,.81-13.42,.57,.35-.54,2.48-1.68,5.18-2.57Zm33.42-10.84c-1.17,1.6-3.22,2.85-6.09,3.74-.42,.13-.81,.24-1.18,.35-2.5,.73-4.15,1.21-5.34,3.84-1.45,3.2-3.93,5.65-6.82,6.72-3.34,1.25-12.96,3.76-17.47,1.03,.56,.08,1.24,.12,2.11,.12,.79,0,1.72-.03,2.83-.11,8.63-.56,13.88-2.15,16.53-5.01,.97-1.04,1.75-2.07,2.51-3.07,1.55-2.02,2.88-3.77,5.12-4.77,2.85-1.28,6.83-3.72,8.05-5.35,.21,.62,.39,1.64-.23,2.5Z"/>
  <g>
    <path class="cls-3" d="M10.09,35.15c-.74-2.87,1.19-4.53,1.6-4.84,.28,0,.59,0,.92,0-.31,.19-.55,.44-.55,.72,0,.48,.59,.7,1.03,.82l.36,.1c.55,.15,1.11,.31,1.64,.49-.98,.66-3.17,2.08-4.61,2.56-.09,.03-.23,.08-.39,.14Z"/>
    <path class="cls-3" d="M5.51,38.2c.36-.54,2.48-1.68,5.17-2.58,1.77-.58,4.46-2.42,5.14-2.9,1.05,.46,1.93,1.11,2.36,2.23,.36,.94,.59,1.91,.74,2.68-7.6,1.6-12.28,.82-13.42,.57Z"/>
    <path class="cls-3" d="M5.56,38.88c.74,.15,2.28,.4,4.61,.4s5.22-.23,8.88-1c.05,.3,.08,.55,.1,.73-2.03,.38-4.38,.65-7.06,.82-5.66,.37-6.36-.3-6.53-.95Z"/>
    <path class="cls-3" d="M12.16,29.63c-.88,0-1.55,.11-1.91,.19,0-.03,0-.07,0-.1,.14-.82,2.01-2.22,3.18-2.94,2.37-.51,6.74,1.4,7.08,1.85,0,.16-.33,.61-2.41,1.88-.73,.44-1.01,.38-1.01,.41-.02-.03-.06-.06-.09-.07-1.81-.97-3.54-1.21-4.84-1.21Z"/>
    <path class="cls-1" d="M26.33,23.37c-.98-.4-3.16-2.16-4.84-3.63,1.23,.27,2.75,.65,3.98,.98,.7,1.08,.99,1.83,.86,2.65Z"/>
    <path class="cls-3" d="M27.96,20.94c-.83-.6-7.02-2.07-8.43-2.24,.1-.71,1.14-3.01,1.53-3.57,.83-.11,6.22,1.57,9.75,2.82,.1,.06,.32,.25,.36,.44,0,.05,.02,.13-.07,.25-.42,.57-1.92,2.24-2.18,2.53-.1,.04-.44,.14-.97-.23Z"/>
    <path class="cls-3" d="M27.99,35.23c0-1.14,.03-3.24-.02-4.03-.05-.94,2.2-4.38,5.06-5.55,.78-.32,1.42-.34,1.88-.05,.61,.37,.82,1.18,.89,1.57-2.25,1.08-3.61,2.83-5.15,4.86-.75,.98-1.53,1.99-2.48,3.02-.06,.06-.13,.12-.19,.19Z"/>
    <path class="cls-3" d="M31.06,17.34c-1.42-.51-3.24-1.13-4.96-1.66,2.36-.45,3.77-1.73,5.04-2.88,.91-.84,1.71-1.57,2.74-1.86,1.15-.32,2.11-.14,2.72,.52,.3,.31,.49,.72,.57,1.16-3.21,1.61-4.67,4.82-4.76,5.03-.36,.09-.64,.15-.82,.18-.19-.26-.44-.42-.48-.44-.02-.02-.04-.02-.06-.03Z"/>
    <path class="cls-1" d="M33.91,8.33s-.02-.02-.02-.03c.14-.04,.54-.09,1.53,.22,1.28,.4,1.47,1.6,1.49,2.12-.11-.02-.22-.03-.31-.04-.36-.23-.77-.38-1.22-.43-.27-.36-1.09-1.47-1.45-1.83Z"/>
    <path class="cls-1" d="M37.4,11.42c1.08,.3,2.7,1.05,2.74,2.9,.02,1.33-.14,2.66-.28,3.82-.2,1.7-.34,2.83,.13,3.34,.5,.55,1.62,1.5,2.17,1.96-1.49,1.14-3.65,2.45-5.76,3.42-.11-.52-.4-1.37-1.15-1.82-.65-.4-1.49-.4-2.48,0-3.1,1.27-5.53,4.88-5.47,6.19,.06,.94,.02,3.9,0,4.59-1.67,1.36-4.14,2.37-7.52,3.06-.09-.73-.36-2.45-1.01-4.15-.83-2.22-3.14-2.85-5.17-3.41l-.36-.1c-.36-.1-.49-.19-.54-.19,.12-.15,.65-.4,1.19-.57,.86,.15,1.79,.44,2.74,.94,.09,.06,.23,.15,.48,.15,.28,0,.71-.11,1.32-.48,1.53-.94,2.49-1.64,2.68-2.24,.78-.1,3.01-.56,4.49-2.62,1.6-2.24,1.82-3.36,.79-5.19,.57,.18,1.01,.34,1.17,.46,.43,.3,.8,.4,1.1,.4,.39,0,.65-.17,.69-.21,.07-.08,1.79-1.97,2.27-2.62,.13-.19,.18-.38,.18-.58,1.12-.2,4.76-1.06,5.83-4.03,.39-1.07,.28-2.17-.24-3Z"/>
    <path class="cls-3" d="M40.48,21.04c-.27-.29-.11-1.58,.04-2.83,.02-.15,.03-.31,.06-.47,1.22-.04,2.16,.32,2.79,1.08,.69,.82,.84,1.95,.69,2.64-.07,.36-.58,.92-1.36,1.56-.48-.4-1.71-1.44-2.21-1.99Z"/>
    <path class="cls-1" d="M44.1,24.79c-1.16,1.6-3.21,2.85-6.1,3.74-.41,.13-.81,.24-1.18,.36-2.5,.73-4.15,1.2-5.34,3.84-1.45,3.2-3.93,5.64-6.82,6.72-3.34,1.24-12.96,3.76-17.47,1.03,.56,.07,1.24,.11,2.12,.11,.78,0,1.72-.03,2.83-.1,8.63-.56,13.88-2.16,16.53-5.01,.97-1.05,1.75-2.07,2.51-3.07,1.54-2.02,2.88-3.77,5.12-4.77,2.85-1.28,6.84-3.72,8.05-5.36,.22,.63,.4,1.65-.23,2.5Z"/>
  </g>
</svg>