<?xml version="1.0" encoding="UTF-8"?>
<svg id="Layer_1" data-name="Layer 1" xmlns="http://www.w3.org/2000/svg" viewBox="0 0 50 50">
  <defs>
    <style>
      .cls-1 {
        fill: #f98764;
      }

      .cls-2 {
        fill: #f5e7d8;
      }

      .cls-3 {
        fill: #ff9f7d;
      }

      .cls-4 {
        fill: #faebd7;
      }

      .cls-5 {
        fill: #231f20;
      }
    </style>
  </defs>
  <path class="cls-3" d="M14.5,32.45c-.75-.07-2.25-.5-3.23-.8,1.24-.83,2.63-2.21,4.1-3.66,.3-.29,.59-.56,.89-.86,.48-.35,1.78-.58,3.4-.29,1.93,.32,3.5,1.21,4.21,2.37,.39,.64,.48,1.17,.23,1.56-.51,.87-2.39,1.18-3.58,1.12-.94-.04-2.19,.14-3.41,.32-1.06,.15-2.05,.29-2.6,.24Z"/>
  <path class="cls-4" d="M12.22,33.52c-.45-.1-1.65-.61-2.56-1.01,.18-.09,.35-.18,.53-.25,.68,.21,3.11,.97,4.23,1.08,.1,.01,.21,.01,.32,.01,.65,0,1.55-.13,2.49-.27,1.16-.18,2.37-.35,3.23-.31,1.16,.06,3.59-.19,4.4-1.55,.29-.49,.48-1.31-.24-2.49-.85-1.39-2.61-2.41-4.82-2.79-.81-.14-1.57-.17-2.25-.11,.04-.04,.1-.11,.14-.16,2.07-.48,5.5,.34,6.64,1.61,1.21,1.32,1.66,2.69,1.45,4.32-.22,1.71-2.48,2.19-2.93,2.28-.41,.07-1.28,.02-2.2-.03-1.27-.08-2.72-.16-3.8,.03-1.68,.28-3.7-.17-4.64-.37Z"/>
  <path class="cls-3" d="M25.72,41.58c.44,0,.86-.01,1.28-.03-.59,.1-1.23,.19-1.93,.27-10.16,1.17-16.09-1.76-17.17-2.36-2.08-1.15-2.06-1.85-2-3.37,.01-.41,.28-.86,.66-1.32,1.07,0,3.48,.22,3.89,1.34,.59,1.61,1.96,5.36,8.9,5.36,1.34,0,2.55,.03,3.66,.06,.96,.03,1.86,.06,2.7,.06Z"/>
  <path class="cls-1" d="M20.43,22.37c2.15-2.81,4.35-6.02,4.96-7.09,.25-.45,.5-.8,.73-1.08,.29,.23,.59,.52,.77,.79l-.41-.21c-.21-.11-.49-.02-.6,.2-.11,.22-.02,.49,.2,.6l.49,.25c-.33,.16-.61,.19-.84,.22-.28,.03-.55,.08-.74,.33-.17,.23-.12,.52-.09,.72,.09,.39,.34,.72,.58,1.04l.03,.03-.84-.42c-.21-.11-.49-.02-.6,.2-.11,.22-.02,.49,.2,.6l1.16,.6c-.16,.01-.35-.02-.63-.09-.5-.11-1.34-.31-1.69,.61-.29,.74-.02,1.36,.15,1.77,.03,.07,.07,.14,.1,.22l-1.23-.63c-.22-.11-.5-.02-.61,.2-.11,.22-.02,.5,.2,.61l.89,.45c-.49,.14-1.21,.23-2.18,.08Z"/>
  <path class="cls-3" d="M24.25,22.11c.12-.38-.03-.75-.16-1.04-.15-.35-.31-.69-.15-1.09,.07-.15,.09-.19,.66-.06,.5,.12,1.2,.28,1.76-.24,.01-.02,.02-.03,.03-.06l1.42,.72c-.06,.39,.11,.82,.27,1.27,.09,.25,.19,.51,.24,.77,.04,.16,.02,.21,.02,.22-.12,.1-.72,.06-1.12,.02l-.5-.02c-.49-.02-.84,.06-1.1,.19l-1.38-.7Z"/>
  <path class="cls-3" d="M30.66,18.7c.1,.33,.19,.68,.22,.93-.09,.04-.46-.02-.71-.06-.43-.08-.93-.16-1.42-.08-.16,.02-.27,.08-.39,.13l-1.59-.82c-.01-.46-.34-.91-.58-1.22-.16-.2-.31-.41-.39-.65,.01,0,.02,0,.04-.01,.33-.04,.91-.11,1.57-.56,.03-.02,.06-.04,.09-.07l2.93,1.49c.04,.3,.13,.61,.21,.91Z"/>
  <path class="cls-1" d="M31.45,20.33c.2-.17,.3-.42,.3-.74s-.1-.72-.22-1.12c-.01-.04-.02-.1-.03-.16l.72,.38c.07,.03,.14,.04,.21,.04,.17,0,.32-.09,.4-.24,.11-.22,.02-.5-.2-.61l-1.27-.64s0-.09,.02-.11c.07-.09,.3-.12,.6-.1,1.32,.12,2.56,.56,3.22,.84l-7.32,9.3c-.3-.1-.94-.44-1.59-1.67-.48-.89-.51-1.36-.46-1.59l2.05,1.04c.07,.03,.13,.04,.2,.04,.17,0,.32-.09,.4-.24,.11-.22,.02-.49-.2-.6l-1.2-.61h.1c.8,.06,1.49,.1,1.87-.33,.21-.24,.27-.59,.18-1.01-.07-.3-.18-.6-.28-.89-.06-.13-.12-.31-.17-.48l1.33,.68c.07,.03,.13,.04,.2,.04,.17,0,.32-.09,.41-.24,.11-.22,.02-.49-.2-.61l-.51-.24h.03c.54,.09,1.06,.18,1.42-.13Z"/>
  <path class="cls-3" d="M31.58,34.92c.11-1.11,.27-2.81,.23-3.86-.02-.39,.04-.49,.04-.5,.09-.03,.43,.07,.63,.13,.27,.07,.54,.14,.83,.18,1.04,.13,2.77,.33,3.53-1.83,.32-.92,.19-2.29,.07-3.5-.07-.76-.18-1.93-.07-2.1,.95,.1,3.02,2,3.49,2.77-.4,.42-.84,.89-1.34,1.41-1.68,1.78-3.79,4.01-6.35,6.39-.37,.33-.72,.63-1.06,.92Z"/>
  <path class="cls-1" d="M36.69,11.63c0-.93,.01-1.7-.51-2.35,.7-.76,3.11-.39,4.75,.19,.45,.17,.5,.29,.08,1.66-.09,.3-.2,.64-.29,1.02-.22,.52-1.67,4.02-1.79,5.04-.01,.11-.04,.12-.08,.13-.29,.09-.91-.18-1.07-.38-.23-.28-.95-1.82-1.07-4.15-.02-.43-.02-.82-.01-1.16Z"/>
  <path class="cls-4" d="M40.97,25.56c-.81-1.14-2.87-2.9-4.03-3.02-.34-.02-.54,.11-.68,.23-.47,.46-.37,1.47-.23,2.86,.11,1.12,.23,2.38-.03,3.11-.49,1.37-1.37,1.37-2.59,1.24-.22-.03-.45-.1-.66-.16-.51-.16-1.03-.3-1.44,.02-.38,.3-.41,.85-.4,1.24,.06,1.32-.23,3.87-.31,4.59-.45,.32-.89,.6-1.31,.84,.28-1.06,.7-2.72,.81-3.82,.06-.52,.09-1.15,.11-1.78,.06-1.15,.11-2.59,.4-3,.25-.21,1.64,.17,2.3,.34,.86,.22,1.42,.35,1.79,.31,.13-.02,.32-.09,.49-.31,.76-1.04,.06-5.66-.09-6.58-.08-.49,.1-.58,.18-.62,.68-.33,2.62,.41,3.53,1.36,.99,1.02,2.05,2.19,2.55,2.75-.12,.12-.25,.25-.39,.39Z"/>
  <path class="cls-3" d="M7.48,33.91c.37-.29,.77-.58,1.21-.84,.69,.3,2.62,1.17,3.41,1.34,.7,.16,2.1,.46,3.55,.46,.45,0,.91-.03,1.36-.1,.97-.17,2.37-.09,3.6-.02,1.02,.06,1.89,.11,2.41,.02,.77-.14,3.35-.79,3.65-3.04,.25-1.88-.3-3.53-1.67-5.05-1.16-1.28-4.09-2.14-6.41-2.01,.39-.47,.81-.99,1.23-1.52,.6,.13,1.15,.2,1.63,.2,1.01,0,1.72-.25,2.18-.55l1.39,.71c-.23,.59-.1,1.37,.45,2.41,1.1,2.07,2.31,2.19,2.57,2.19h.03c.13-.01,.25-.08,.33-.18l7.83-9.95c.09-.1,.12-.24,.09-.38-.02-.12-.11-.23-.23-.3-.08-.04-1.93-.99-4.05-1.17-.64-.04-1.09,.09-1.36,.42-.07,.08-.12,.18-.16,.27l-2.56-1.3s.01-.08,.01-.11c0-.74-.74-1.47-1.25-1.88,.22-.21,.38-.31,.41-.33,.8-.8,.91-1.36,1.07-2.23,.08-.42,.18-.95,.4-1.68,.12-.41,.34-.7,.7-.87,.31-.16,.71-.22,1.14-.22,1.35,0,3.03,.61,3.7,.85,1.65,.6,1.65,1.1,1.64,2.57-.01,.37-.01,.77,.01,1.22,.12,2.32,.84,4.17,1.28,4.69,.34,.4,1.32,.86,2.01,.65,.41-.12,.66-.45,.72-.9,.04-.42,.43-1.52,.84-2.6,.21,1.3,.7,2.81,1.48,4.56,.79,1.77,.55,4.2,.46,4.89-.18,.11-.37,.25-.59,.44-.5-.56-1.57-1.75-2.57-2.78-1-1.04-3.35-2.14-4.57-1.53-.32,.16-.83,.56-.66,1.56,.49,2.98,.53,5.37,.28,5.86-.27-.01-.86-.17-1.35-.3-1.42-.37-2.76-.73-3.27,.01-.44,.63-.5,2.01-.56,3.49-.02,.61-.06,1.22-.11,1.73-.14,1.36-.81,3.79-1.01,4.47-2.2,1.01-4.11,1.1-5.97,1.2-.61,.02-1.2,.06-1.78,.11-3.08,.31-7.27-.35-8.09-.5-.58-.76-.86-1.54-1.06-2.09-.51-1.39-2.5-1.79-3.81-1.89Z"/>
  <path class="cls-1" d="M41.23,8.63c-.11-.04-.43-.15-.86-.27,.14-.25,.47-.51,1.18-.51,.87,0,1.28,.38,1.47,.66l-1.14,.51c-.15-.16-.35-.3-.65-.4Z"/>
  <path class="cls-2" d="M37.88,32.94c-2.21,.73-2.56,1.48-3.01,2.86-.19,.55-.4,1.2-.84,2.01-.28,.51-.59,.94-.96,1.33-3.17,1.67-5.9,1.61-10.03,1.49-1.12-.02-2.34-.06-3.69-.06-2.94,0-4.76-.7-5.92-1.61,1.28,.18,3.28,.41,5.21,.41,.65,0,1.3-.03,1.89-.09,.58-.06,1.15-.09,1.74-.11,3.02-.16,6.44-.32,10.98-4.53,2.59-2.39,4.71-4.63,6.4-6.42,1.43-1.52,2.59-2.75,3.28-3.23,.44,.59,1.03,1.88,1.17,3.7,.09,.97-.93,2.51-6.22,4.24Z"/>
  <path class="cls-5" d="M43.5,24.3c.1-.78,.36-3.39-.54-5.39-1.27-2.84-1.75-5.08-1.39-6.48,.1-.37,.2-.71,.29-1.01,.16-.54,.32-1.06,.32-1.51l1.61-.71c.19-.09,.3-.3,.26-.51-.13-.59-.82-1.71-2.5-1.71-.73,0-1.3,.2-1.69,.6-.2,.2-.3,.41-.38,.6-1.37-.28-3.17-.41-3.98,.54-.28-.17-.62-.33-1.04-.49-1.68-.61-4.08-1.33-5.55-.59-.57,.29-.96,.77-1.16,1.42-.23,.77-.33,1.33-.42,1.78-.15,.81-.22,1.15-.74,1.68-.04,.02-.99,.61-1.99,2.34-.92,1.61-5.84,8.65-8.16,10.85-.26,.25-.52,.51-.78,.76,0,0-.01,0-.02,.01h0c-.31,.3-.62,.6-.92,.9-1.77,1.76-3.45,3.42-4.76,4.01-.5,.23-4.89,2.28-4.98,4.69-.07,1.92,.15,2.89,2.47,4.18,.94,.52,5.41,2.75,12.97,2.75,1.46,0,3.04-.08,4.73-.28,4-.46,6.63-1.1,8.38-2.81,0,0,.02,0,.02-.01h0c.48-.48,.9-1.01,1.25-1.66,.48-.89,.72-1.59,.9-2.16,.39-1.18,.55-1.66,2.43-2.28,4.77-1.56,7.01-3.25,6.84-5.17-.17-2.06-.87-3.64-1.5-4.36Zm-1.95-16.42c.87,0,1.28,.38,1.47,.67l-1.15,.51c-.15-.16-.35-.3-.65-.4-.12-.04-.43-.15-.87-.26,.14-.25,.46-.51,1.19-.51Zm-.62,1.62c.45,.16,.5,.28,.08,1.65-.09,.31-.2,.65-.3,1.02-.22,.53-1.67,4.03-1.79,5.04-.01,.12-.05,.13-.08,.14-.28,.08-.91-.18-1.08-.38-.23-.27-.95-1.82-1.07-4.15-.02-.43-.02-.82-.02-1.17,0-.93,.02-1.7-.5-2.35,.69-.77,3.11-.38,4.75,.19Zm-12.72,1.51c.08-.43,.18-.96,.4-1.69,.12-.41,.35-.7,.7-.87,.32-.16,.71-.22,1.15-.22,1.34,0,3.03,.61,3.7,.85,1.65,.6,1.64,1.1,1.63,2.57,0,.36,0,.77,.02,1.22,.12,2.31,.84,4.17,1.29,4.69,.34,.4,1.32,.87,2.02,.65,.4-.12,.66-.45,.71-.89,.05-.42,.44-1.52,.85-2.6,.2,1.29,.7,2.81,1.48,4.55,.79,1.78,.56,4.2,.47,4.9-.17,.11-.37,.25-.58,.43-.5-.56-1.58-1.74-2.57-2.77-1-1.04-3.36-2.14-4.58-1.54-.32,.16-.82,.57-.66,1.57,.48,2.98,.53,5.36,.28,5.85-.27,0-.86-.16-1.35-.29-1.42-.37-2.76-.73-3.27,0-.44,.63-.5,2.02-.56,3.49-.03,.61-.05,1.21-.11,1.73-.15,1.36-.81,3.78-1.01,4.47-2.2,1.01-4.11,1.1-5.97,1.19-.6,.03-1.19,.06-1.78,.12-3.07,.31-7.27-.36-8.09-.5-.57-.76-.86-1.54-1.07-2.09-.51-1.4-2.5-1.79-3.81-1.89,.37-.29,.77-.58,1.21-.85,.68,.31,2.63,1.18,3.41,1.35,.69,.15,2.1,.46,3.55,.46,.46,0,.92-.03,1.36-.11,.98-.16,2.37-.08,3.6-.01,1.02,.06,1.89,.11,2.41,.01,.78-.14,3.36-.78,3.66-3.04,.25-1.88-.3-3.54-1.68-5.05-1.17-1.28-4.08-2.14-6.41-2.02,.39-.47,.81-.98,1.23-1.52,.6,.13,1.15,.2,1.62,.2,1.01,0,1.72-.26,2.18-.56l1.39,.71c-.23,.58-.09,1.37,.46,2.42,1.1,2.07,2.31,2.18,2.56,2.18h.04c.13,0,.25-.07,.33-.17l7.83-9.95c.08-.11,.11-.24,.09-.37-.03-.13-.11-.24-.23-.3-.08-.04-1.93-.99-4.05-1.17-.65-.06-1.09,.08-1.37,.42-.07,.08-.12,.17-.16,.27l-2.55-1.3s.01-.08,.01-.12c0-.74-.74-1.46-1.26-1.88,.22-.2,.38-.31,.41-.33,.8-.79,.91-1.36,1.07-2.22Zm3.59,20.08c-.01-.38,.05-.49,.05-.5,.1-.03,.44,.07,.64,.13,.26,.07,.54,.15,.83,.19,1.03,.12,2.76,.32,3.52-1.83,.33-.92,.19-2.29,.07-3.5-.07-.77-.19-1.92-.07-2.11,.96,.1,3.02,2.01,3.5,2.77-.41,.42-.85,.89-1.34,1.41-1.69,1.79-3.79,4.01-6.36,6.39-.36,.34-.72,.64-1.07,.92,.12-1.11,.27-2.82,.23-3.87Zm9.17-5.5c-.82-1.14-2.87-2.89-4.03-3.02-.35-.03-.55,.1-.67,.23-.47,.47-.38,1.47-.24,2.86,.11,1.12,.23,2.38-.03,3.11-.49,1.37-1.37,1.38-2.59,1.24-.22-.03-.45-.1-.67-.16-.5-.15-1.02-.3-1.43,.02-.39,.3-.41,.85-.4,1.24,.05,1.32-.24,3.87-.32,4.59-.45,.32-.88,.6-1.3,.84,.28-1.06,.7-2.72,.81-3.81,.06-.53,.08-1.15,.11-1.78,.05-1.16,.11-2.6,.39-3.01,.25-.21,1.64,.16,2.31,.34,.87,.23,1.41,.36,1.79,.31,.13-.02,.33-.09,.49-.31,.76-1.04,.06-5.65-.09-6.57-.08-.49,.1-.58,.18-.62,.68-.34,2.62,.41,3.53,1.35,.98,1.02,2.05,2.2,2.55,2.75-.12,.12-.25,.25-.39,.38Zm-16.88-4.49c-.16-.35-.3-.69-.15-1.08,.06-.15,.08-.19,.66-.06,.5,.12,1.19,.28,1.76-.25,.02-.02,.02-.03,.04-.05l1.41,.72c-.05,.39,.11,.82,.27,1.27,.09,.25,.19,.51,.24,.77,.03,.16,.02,.22,.02,.22-.12,.1-.72,.06-1.13,.03l-.5-.03c-.48-.02-.84,.06-1.1,.19l-1.38-.7c.12-.37-.03-.75-.16-1.04Zm2.11-3.48c-.15-.2-.31-.41-.39-.66,.01,0,.03,0,.04,0,.34-.04,.91-.12,1.57-.56,.04-.02,.05-.05,.09-.07l2.94,1.49c.05,.31,.13,.62,.21,.92,.09,.33,.19,.67,.22,.93-.1,.04-.47-.02-.71-.06-.43-.07-.93-.15-1.42-.07-.15,.02-.27,.08-.38,.13l-1.6-.81c-.01-.47-.34-.91-.57-1.22Zm6.42,.29l-1.28-.65s.01-.08,.03-.11c.07-.09,.29-.12,.6-.09,1.32,.11,2.56,.56,3.22,.84l-7.32,9.3c-.3-.1-.95-.44-1.59-1.67-.47-.89-.51-1.36-.47-1.6l2.05,1.04c.06,.03,.13,.05,.2,.05,.16,0,.32-.09,.4-.25,.11-.22,.02-.49-.2-.6l-1.2-.61h.1c.8,.06,1.49,.11,1.87-.33,.21-.24,.27-.58,.17-1-.07-.3-.17-.6-.28-.88-.05-.14-.12-.32-.16-.49l1.33,.68c.06,.03,.13,.05,.2,.05,.16,0,.32-.09,.4-.25,.11-.22,.02-.49-.2-.6l-.5-.25s.02,0,.03,0c.54,.09,1.06,.18,1.42-.13,.2-.17,.3-.42,.3-.74s-.11-.72-.22-1.12c-.01-.05-.03-.1-.04-.15l.73,.37c.06,.03,.13,.05,.2,.05,.16,0,.32-.09,.4-.25,.11-.22,.02-.49-.2-.6Zm-7.24-2.61c.26-.45,.5-.8,.73-1.08,.29,.23,.59,.52,.78,.78l-.4-.21c-.22-.11-.49-.02-.6,.2-.11,.22-.02,.49,.2,.6l.49,.25c-.33,.16-.61,.19-.84,.22-.27,.04-.56,.07-.74,.33-.17,.24-.13,.52-.09,.72,.09,.39,.33,.72,.57,1.04,.01,.02,.02,.02,.03,.04l-.83-.42c-.22-.11-.49-.02-.6,.2-.11,.22-.02,.49,.2,.6l1.17,.59c-.16,0-.36-.02-.63-.09-.5-.12-1.34-.31-1.7,.6-.29,.74-.02,1.36,.16,1.77,.03,.07,.06,.15,.09,.22l-1.23-.62c-.22-.11-.49-.02-.6,.2-.11,.22-.02,.49,.2,.6l.89,.45c-.49,.15-1.21,.24-2.18,.08,2.15-2.8,4.34-6.02,4.95-7.08Zm-10.02,12.72c.29-.29,.59-.58,.88-.86,.48-.36,1.78-.58,3.4-.3,1.92,.33,3.49,1.22,4.2,2.37,.39,.64,.47,1.17,.24,1.56-.52,.87-2.4,1.18-3.58,1.12-.94-.05-2.2,.14-3.41,.31-1.06,.15-2.05,.29-2.6,.25-.75-.07-2.24-.5-3.23-.8,1.25-.84,2.64-2.21,4.1-3.66Zm-5.17,4.27c.68,.22,3.11,.98,4.22,1.08,.1,0,.21,.01,.33,.01,.65,0,1.54-.13,2.48-.27,1.17-.17,2.37-.36,3.24-.3,1.16,.05,3.58-.19,4.39-1.56,.29-.48,.48-1.31-.25-2.49-.85-1.4-2.61-2.41-4.81-2.79-.81-.14-1.58-.17-2.25-.11,.05-.05,.1-.11,.15-.16,2.07-.47,5.5,.35,6.64,1.61,1.21,1.33,1.67,2.7,1.45,4.33-.22,1.7-2.48,2.19-2.93,2.27-.41,.07-1.28,.02-2.2-.03-1.28-.08-2.73-.16-3.8,.03-1.68,.28-3.7-.16-4.64-.37-.45-.1-1.65-.6-2.55-1,.17-.09,.35-.18,.53-.26Zm14.87,9.55c-10.16,1.17-16.08-1.76-17.16-2.36-2.08-1.15-2.06-1.84-2.01-3.36,.01-.41,.27-.86,.67-1.31,1.07,0,3.47,.22,3.88,1.34,.59,1.6,1.96,5.36,8.9,5.36,1.34,0,2.55,.03,3.66,.06,.97,.02,1.86,.05,2.7,.05,.44,0,.87,0,1.29-.03-.6,.09-1.24,.18-1.94,.26Zm12.81-8.88c-2.21,.72-2.55,1.47-3.01,2.85-.19,.56-.4,1.2-.84,2.02-.27,.5-.59,.94-.96,1.33-3.17,1.67-5.9,1.6-10.03,1.5-1.12-.03-2.34-.06-3.69-.06-2.94,0-4.76-.7-5.93-1.6,1.28,.18,3.28,.41,5.22,.41,.65,0,1.29-.03,1.9-.09,.57-.06,1.15-.09,1.73-.11,3.02-.15,6.44-.31,10.99-4.52,2.59-2.4,4.7-4.63,6.4-6.43,1.43-1.51,2.59-2.74,3.28-3.23,.44,.59,1.02,1.89,1.17,3.7,.08,.98-.93,2.51-6.23,4.25Z"/>
</svg>