<?xml version="1.0" encoding="UTF-8"?>
<svg id="Layer_1" data-name="Layer 1" xmlns="http://www.w3.org/2000/svg" viewBox="0 0 50 50">
  <defs>
    <style>
      .cls-1 {
        fill: #fff;
      }

      .cls-2 {
        fill: #aeaeb2;
      }

      .cls-3 {
        fill: #d6d3d2;
      }

      .cls-4 {
        fill: #1f1d20;
      }

      .cls-5 {
        fill: #231f20;
      }

      .cls-6 {
        fill: #3a3a3c;
      }

      .cls-7 {
        fill: #575757;
      }
    </style>
  </defs>
  <g>
    <path class="cls-5" d="M13.39,33.06c-3.2,.14-5.01-1.27-5.64-1.9,.4-.37,.88-.72,1.41-1.11,.35-.26,.72-.53,1.11-.82,.63-.49,1.35-.96,2.05-1.39,1.18-.75,2.38-1.52,3.21-2.47,.14-.16,.31-.37,.5-.59,.02,.01,.03,.02,.06,.02l6.39,1.78c-.08,.32-.11,.61-.09,.86,.14,1.68,.56,3.71,.77,4.66-2.53,.37-6.54,.81-9.75,.96Z"/>
    <path class="cls-6" d="M22.76,25.7l-6.1-1.7c.3-.35,.62-.74,.97-1.17,.23-.27,.46-.56,.7-.85l.37,.1,4.1,3.51s-.02,.07-.03,.1Z"/>
    <path class="cls-6" d="M23.9,23.54c-.25,.41-.49,.81-.69,1.2l-2.41-2.07,3.1,.87Z"/>
    <path class="cls-6" d="M19.13,21.26l-.11-.1c.46-.56,.93-1.12,1.37-1.65l3.95,3.19-5.21-1.44Z"/>
    <path class="cls-6" d="M25.52,21.17c-.21,.27-.4,.55-.59,.82l-2.21-1.79,2.8,.97Z"/>
    <path class="cls-6" d="M26.09,20.38l-4.98-1.71c.45-.51,.85-.98,1.19-1.36h.06s3.76,3.05,3.76,3.05t-.02,.02Z"/>
    <path class="cls-7" d="M10.46,36.65c-3.11-.78-4.22-1.68-4.54-2,.11-.39,.39-1.25,.8-2.18,.09-.23,.23-.43,.38-.63,.78,.75,2.81,2.29,6.33,2.15,4.38-.19,9.83-.93,11.64-1.25,1.01-.19,2.51,.8,3.43,1.53-.86,.37-1.9,.77-3.18,1.25-5.74,2.14-11.44,1.98-14.87,1.13Z"/>
    <path class="cls-6" d="M27.35,18.76c-.23,.29-.45,.57-.67,.86l-2.03-1.63,2.71,.78Z"/>
    <path class="cls-6" d="M27.42,17.81l-4.4-1.27c.4-.41,.77-.81,1.11-1.19l3.29,2.46Z"/>
    <path class="cls-6" d="M28.53,15.52l-3.61-1.04c.16-.18,.32-.35,.49-.54l3.12,1.58Z"/>
    <path class="cls-6" d="M29,16.63c-.19,.27-.39,.54-.57,.77l-2.05-1.52,2.62,.75Z"/>
    <path class="cls-6" d="M30.01,15.24l-3.95-1.99c.25-.26,.5-.53,.75-.77,.35-.33,.62-.5,.8-.59,1.75,.34,3.07,1.3,3.66,1.78-.45,.5-.87,1.04-1.26,1.57Z"/>
    <path class="cls-2" d="M31.92,13.01c-.49-.42-1.51-1.17-2.88-1.67,1.97-1.92,4.13-.55,4.33-.41l.73,.65c-.25,.07-.53,.17-.81,.34-.48,.3-.94,.66-1.37,1.09Z"/>
    <path class="cls-2" d="M27.93,24.1c-1.26,1.79-2.55,3.65-2.33,5.27,.13,.99,.31,1.9,.46,2.54-.39-.09-.78-.15-1.14-.08-.24,.05-.53,.09-.86,.14-.21-.9-.63-2.96-.77-4.59-.02-.16,.01-.34,.05-.54l1.41,.39s.08,.01,.11,.01c.09,0,.17-.03,.25-.08,.02-.01,.03-.02,.06-.05,.01-.01,.03-.01,.05-.03,.05-.06,.08-.11,.09-.17h.01v-.08s.01-.07,.01-.1c-.01-.02-.02-.06-.03-.08,0-.03-.01-.06-.02-.08-.01-.03-.05-.06-.07-.09-.01-.01-.02-.03-.03-.05l-1.25-1.06c.25-.49,.56-1.02,.9-1.55l1.33,.37,.18,.15c.09,.07,.19,.1,.3,.1,.13,0,.26-.06,.35-.17,.03-.03,.05-.08,.07-.11,.03-.06,.09-.1,.1-.17,.07-.24-.07-.5-.32-.57l-.25-.07-.94-.75c.26-.38,.53-.74,.79-1.1l1.94,.67s.09,.02,.15,.02c.09,0,.16-.03,.24-.08,.01-.01,.03-.02,.05-.05,.02-.01,.06-.02,.07-.05,.03-.03,.05-.08,.07-.13,0-.01,.01-.01,.01-.02h0s.01-.07,.02-.1v-.08s-.01-.06-.02-.08c0-.03-.01-.07-.02-.09s-.03-.05-.05-.07c-.02-.02-.05-.06-.07-.08h-.01l-1.42-1.15c.34-.43,.65-.83,.91-1.17l1.79,.51s.09,.02,.13,.02c.21,0,.39-.14,.45-.34,.08-.24-.07-.5-.31-.57l-.42-.13-.78-.57c.24-.32,.5-.67,.78-1.06l1.86,.54s.08,.02,.13,.02c.21,0,.39-.14,.45-.34,.07-.24-.07-.5-.32-.57l-.16-.05c0-.17-.09-.35-.26-.43l-.79-.4c.85-1.13,1.83-2.29,2.93-2.94,.58-.35,1.07-.32,1.53-.07l.91,.81s0,.01,.01,.01c-1.17,1.37-6.11,7.26-7.27,9.11-.3,.48-.66,.99-1.03,1.52Z"/>
    <path class="cls-4" d="M32.72,25.51c.1-.1,.21-.21,.32-.3-.43,.54-.73,1.21-.75,2l-.16-.11c.01-.33,.09-1.01,.59-1.59Z"/>
    <path class="cls-6" d="M33.77,17.88c-1.66,2.02-3.42,4.23-4.02,5.19-.31,.5-.67,1.04-1.06,1.58-1.1,1.57-2.34,3.34-2.17,4.61,.17,1.31,.45,2.47,.58,3.03,.45,.21,.87,.47,1.23,.72,1.12-.57,4.65-3.79,5.99-5.38,.46-.54,1.07-1.15,1.74-1.79,1.22-1.2,2.62-2.57,2.94-3.55,.23-.73-2.51-2.85-5.22-4.39Zm-3.26,9.15s-.08,.02-.13,.02c-.07,0-.14-.02-.21-.07l-.93-.63c-.13-.09-.17-.24-.14-.39,.22-.75,1.13-2.23,3.02-2.33,.17-.01,.32,.1,.37,.26,.03,.16-.05,.33-.19,.4-.06,.02-1.22,.61-1.58,2.47-.02,.11-.1,.22-.22,.26Zm5.3-2.61c-.13,.05-3.17,1.03-2.5,3.6,.05,.18-.02,.39-.18,.49-.08,.06-.17,.09-.26,.09s-.18-.02-.25-.08l-1.21-.78c-.11-.08-.18-.21-.21-.34,0-.06-.14-1.39,.82-2.5,.78-.88,2-1.35,3.65-1.38,.22-.01,.43,.16,.47,.39,.05,.23-.09,.45-.32,.51Zm-5.93,1.51l.27,.19c.16-.54,.38-.97,.62-1.31-.5,.37-.78,.83-.89,1.12Z"/>
    <path class="cls-6" d="M35.87,11.92l-1.46-1.31c.32-.25,.74-.63,1.14-1.17,.34-.48,1.55-.38,2.63-.27,.35,.03,.71,.06,1.04,.07,.53,1.3,1.54,4.18,1.33,5.28-.09,.47-.38,.77-.79,.86-.48,.09-1.15-.1-1.6-.77l-.27-.41c-.27-.41-.61-.91-.99-1.36h0s-.01-.02-.01-.02c-.3-.34-.64-.66-1.01-.89Z"/>
    <path class="cls-2" d="M40.47,9.88c.55,.72,1.02,1.91,1.35,2.73,.13,.32,.24,.61,.34,.86,.21,.48,.45,1.27,.67,2.18-.02,1.31-.33,2.1-.9,2.34-1.3,.53-4.08-1.47-5.74-3.03,.24-.3,.43-.53,.59-.72,.11,.15,.22,.3,.32,.47l.29,.41c.59,.88,1.62,1.35,2.55,1.15,.78-.16,1.35-.74,1.52-1.58,.23-1.14-.48-3.38-.99-4.82Z"/>
    <path class="cls-7" d="M42.27,18.85c.46-.19,.81-.54,1.05-1.03,.23,1.11,.41,2.23,.51,3.18,.21,1.98-1.29,2.69-2.99,3.29-1.35,.48-3.65,2.53-7.23,6.42-1.3,1.41-2.18,2.19-4.17,3.14-.08-.08-.19-.17-.31-.26,1.68-1.1,4.87-4.16,5.9-5.38,.42-.5,1.03-1.1,1.67-1.73,1.37-1.34,2.8-2.73,3.18-3.94,.54-1.7-3.6-4.3-5.51-5.38,.43-.54,.86-1.04,1.23-1.49,1.02,.95,3.78,3.33,5.85,3.33,.3,0,.57-.05,.82-.15Z"/>
    <path class="cls-3" d="M44.17,26.05c-.73,2.32-2.7,3.34-5.19,4.63-.5,.26-1.03,.53-1.55,.82-2.41,1.33-3.06,2.15-4.24,3.65-.39,.48-.82,1.04-1.41,1.71-1.9,2.22-6.25,3.6-12.57,4-6.55,.4-10.11-1.27-12.23-2.57-.81-.49-1.3-1.07-1.45-1.73-.08-.37-.03-.71,.03-.98,.65,.53,1.99,1.3,4.66,1.97,1.49,.38,3.38,.62,5.51,.62,2.98,0,6.44-.48,9.91-1.77,5.47-2.03,6.59-2.82,8.65-5.06,3.38-3.67,5.69-5.75,6.86-6.17,.98-.34,2.56-.91,3.26-2.25,.14,.83,.15,1.91-.24,3.14Z"/>
  </g>
  <g>
    <path class="cls-5" d="M44.75,20.81c-.26-2.34-1.07-6.17-1.73-7.71-.1-.24-.22-.53-.34-.83-.65-1.66-1.55-3.94-3.13-3.94-.4,0-.84-.04-1.29-.08-1.37-.12-2.79-.26-3.46,.65-.42,.57-.89,.94-1.15,1.12-.82-.45-3.33-1.5-5.49,.91-.05-.01-.1-.02-.16-.03-.52-.05-1.12,.25-1.82,.91-.74,.7-1.41,1.45-2.11,2.23-.58,.65-1.21,1.35-1.95,2.11-.9,.93-2.58,2.93-4.16,4.83-.17,.03-.31,.15-.36,.33-.01,.04,0,.08,0,.12-.23,.28-.46,.55-.67,.82-.9,1.09-1.67,2.03-2.1,2.52-.74,.85-1.84,1.55-3.01,2.3-.72,.45-1.45,.92-2.12,1.44-.38,.29-.74,.56-1.08,.81-1.25,.92-2.24,1.64-2.73,2.79-.51,1.19-.82,2.22-.89,2.47-.14,.25-.58,1.12-.35,2.19,.2,.91,.83,1.69,1.86,2.32,1.99,1.22,5.2,2.77,10.74,2.77,.64,0,1.32-.02,2.03-.07,6.67-.42,11.12-1.87,13.22-4.31,.59-.69,1.04-1.26,1.43-1.75,1.14-1.44,1.71-2.17,3.95-3.41,.52-.29,1.04-.55,1.54-.81,2.57-1.33,4.8-2.48,5.64-5.17,.92-2.91-.09-5.1-.31-5.51Zm-3.9,3.48c-1.35,.48-3.65,2.52-7.23,6.42-1.3,1.41-2.18,2.2-4.17,3.14-.08-.07-.19-.16-.31-.26,1.69-1.1,4.87-4.16,5.9-5.37,.43-.51,1.03-1.1,1.68-1.73,1.37-1.34,2.79-2.73,3.17-3.94,.54-1.7-3.6-4.3-5.51-5.39,.44-.53,.86-1.03,1.23-1.48,1.02,.95,3.79,3.32,5.86,3.32,.29,0,.57-.05,.83-.15,.45-.19,.8-.53,1.05-1.02,.22,1.11,.41,2.23,.51,3.18,.21,1.98-1.29,2.68-2.99,3.29Zm-16.79,7.68c-.2-.9-.63-2.96-.77-4.6-.01-.15,.01-.34,.06-.54l1.4,.39s.08,.02,.12,.02c.09,0,.17-.03,.24-.08,.02-.01,.04-.02,.05-.04,.02-.01,.04-.02,.05-.04,.04-.05,.07-.11,.09-.17,0,0,0,0,0,0,0-.02,0-.05,0-.07,0-.03,.01-.06,0-.1,0-.03-.02-.06-.02-.09,0-.03-.01-.06-.03-.08-.02-.03-.04-.06-.06-.08-.01-.02-.02-.04-.04-.05l-1.24-1.07c.25-.49,.56-1.01,.91-1.55l1.32,.37,.18,.15c.09,.07,.19,.1,.29,.1,.14,0,.27-.06,.36-.17,.03-.04,.04-.08,.06-.12,.04-.05,.09-.1,.11-.16,.07-.25-.08-.5-.32-.57l-.25-.07-.93-.76c.26-.37,.52-.74,.78-1.1l1.94,.67c.05,.02,.1,.03,.15,.03,0,0,0,0,0,0,.08,0,.16-.03,.23-.07,.02-.01,.04-.03,.06-.04,.02-.02,.05-.03,.07-.05,.03-.04,.05-.08,.06-.12,0,0,.01-.01,.02-.02,0,0,0,0,0-.01,0-.03,0-.06,.01-.1,0-.03,0-.06,0-.08,0-.03-.01-.05-.02-.08,0-.03-.01-.06-.03-.09-.01-.02-.03-.04-.05-.06-.02-.03-.04-.06-.07-.08,0,0,0,0,0,0l-1.42-1.15c.34-.44,.65-.83,.92-1.17l1.79,.52s.09,.02,.13,.02c.2,0,.39-.13,.45-.34,.07-.25-.07-.5-.32-.57l-.42-.12-.77-.58c.24-.32,.5-.67,.78-1.06l1.86,.53s.09,.02,.13,.02c.2,0,.39-.13,.45-.34,.07-.25-.07-.5-.32-.57l-.17-.05c0-.18-.08-.35-.25-.43l-.79-.4c.85-1.13,1.83-2.29,2.92-2.94,.58-.35,1.08-.32,1.54-.06l.91,.81s0,0,.01,.01c-1.16,1.37-6.11,7.25-7.26,9.1-.3,.49-.67,1-1.03,1.53-1.25,1.79-2.55,3.64-2.34,5.26,.13,1,.32,1.9,.46,2.54-.39-.09-.78-.14-1.15-.08-.23,.04-.52,.09-.86,.14Zm-5.04-10.82c.46-.56,.93-1.12,1.37-1.64l3.95,3.2-5.2-1.45-.12-.1Zm6.39-7.2l3.12,1.58-3.61-1.04c.16-.18,.33-.36,.49-.54Zm.98,1.92l2.62,.75c-.2,.28-.39,.54-.58,.77l-2.04-1.53Zm-2.25-.52l3.29,2.46-4.41-1.27c.4-.42,.77-.81,1.11-1.19Zm3.22,3.4c-.22,.29-.45,.57-.67,.86l-2.03-1.64,2.71,.78Zm-5.05-1.45h.05s3.76,3.05,3.76,3.05c0,0-.01,.02-.02,.03l-4.99-1.72c.44-.52,.85-.98,1.2-1.36Zm3.21,3.86c-.2,.28-.4,.55-.59,.83l-2.21-1.79,2.8,.96Zm-1.62,2.38c-.26,.41-.49,.82-.69,1.2l-2.41-2.06,3.1,.86Zm3.2,8.73c-.14-.56-.41-1.71-.59-3.03-.17-1.26,1.08-3.04,2.17-4.6,.38-.54,.75-1.07,1.06-1.57,.6-.97,2.36-3.17,4.02-5.19,2.72,1.54,5.45,3.66,5.22,4.38-.31,.99-1.71,2.35-2.93,3.55-.66,.64-1.28,1.25-1.74,1.8-1.33,1.58-4.87,4.8-5.98,5.38-.37-.26-.79-.51-1.23-.72Zm14.71-19.67c.12,.32,.24,.61,.35,.86,.21,.47,.44,1.26,.68,2.18-.03,1.31-.33,2.1-.91,2.34-1.31,.53-4.08-1.47-5.74-3.03,.24-.29,.44-.53,.6-.72,.1,.15,.21,.3,.32,.47l.28,.42c.6,.88,1.63,1.34,2.55,1.15,.78-.16,1.35-.75,1.51-1.58,.23-1.15-.47-3.39-.99-4.82,.55,.72,1.02,1.9,1.34,2.72Zm-6.26-3.17c.35-.48,1.56-.37,2.63-.28,.36,.03,.71,.06,1.05,.07,.52,1.31,1.54,4.18,1.32,5.28-.09,.46-.37,.77-.79,.85-.48,.1-1.15-.1-1.6-.77l-.27-.41c-.27-.41-.6-.91-.99-1.36h0s-.02-.02-.02-.02c-.3-.34-.63-.66-1-.89l-1.47-1.31c.33-.25,.75-.63,1.14-1.17Zm-2.18,1.49l.73,.66c-.26,.06-.53,.17-.82,.34-.48,.29-.94,.66-1.37,1.08-.49-.42-1.5-1.16-2.87-1.66,1.96-1.93,4.13-.55,4.33-.41Zm-6.55,1.55c.35-.33,.61-.5,.79-.58,1.75,.34,3.08,1.29,3.66,1.78-.45,.5-.87,1.04-1.27,1.56l-3.94-1.99c.25-.26,.5-.52,.75-.77Zm-9.19,10.36c.23-.27,.46-.56,.7-.84l.37,.1,4.1,3.51s-.02,.06-.04,.1l-6.1-1.7c.3-.36,.62-.75,.97-1.17Zm-8.47,7.22c.35-.25,.72-.53,1.1-.82,.63-.49,1.35-.95,2.05-1.39,1.17-.74,2.38-1.51,3.21-2.47,.13-.15,.31-.36,.5-.59,.02,0,.03,.02,.05,.03l6.39,1.78c-.08,.32-.11,.61-.09,.86,.14,1.68,.56,3.71,.77,4.66-2.53,.36-6.54,.81-9.75,.95-3.21,.14-5.01-1.27-5.65-1.9,.4-.36,.88-.71,1.41-1.11Zm-2.43,2.41c.1-.22,.22-.43,.38-.63,.78,.76,2.82,2.29,6.33,2.15,4.38-.19,9.83-.92,11.65-1.24,1-.19,2.51,.81,3.42,1.53-.86,.37-1.89,.77-3.17,1.25-5.73,2.13-11.44,1.98-14.86,1.12-3.1-.78-4.22-1.67-4.54-2,.12-.39,.4-1.24,.8-2.18Zm37.45-6.42c-.73,2.32-2.7,3.34-5.19,4.63-.51,.26-1.03,.53-1.56,.83-2.41,1.33-3.06,2.15-4.24,3.64-.38,.48-.82,1.04-1.4,1.72-1.9,2.21-6.25,3.59-12.58,3.99-6.54,.4-10.11-1.27-12.23-2.57-.81-.5-1.29-1.07-1.44-1.72-.09-.37-.04-.72,.03-.99,.65,.52,1.99,1.3,4.67,1.97,1.48,.37,3.37,.61,5.5,.61,2.99,0,6.45-.48,9.91-1.77,5.48-2.04,6.6-2.83,8.65-5.06,3.38-3.68,5.69-5.75,6.86-6.17,.98-.35,2.55-.92,3.26-2.26,.13,.83,.14,1.91-.24,3.14Z"/>
    <path class="cls-1" d="M31.2,27.41c.02,.14,.09,.26,.21,.34l1.2,.79c.08,.05,.17,.07,.25,.07,.09,0,.19-.03,.27-.09,.16-.11,.23-.31,.18-.49-.66-2.58,2.38-3.56,2.51-3.6,.22-.07,.36-.29,.32-.52-.04-.23-.25-.4-.47-.39-1.65,.03-2.87,.5-3.65,1.38-.97,1.11-.83,2.45-.82,2.5Zm1.52-1.89c.09-.11,.2-.21,.32-.3-.43,.54-.73,1.21-.75,2l-.17-.11c.01-.33,.1-1.01,.6-1.59Z"/>
    <path class="cls-1" d="M30.19,26.99c.06,.04,.13,.06,.2,.06,.04,0,.09,0,.13-.03,.11-.04,.19-.14,.21-.26,.36-1.86,1.53-2.44,1.58-2.46,.15-.07,.23-.24,.19-.4s-.18-.27-.36-.26c-1.89,.11-2.8,1.57-3.02,2.33-.04,.15,.01,.3,.14,.38l.93,.64Zm.59-2.18c-.23,.34-.45,.77-.61,1.31l-.28-.19c.12-.28,.39-.76,.89-1.12Z"/>
  </g>
</svg>