<?xml version="1.0" encoding="UTF-8"?><svg id="Layer_1" xmlns="http://www.w3.org/2000/svg" viewBox="0 0 50 50"><defs><style>.cls-1{fill:#eb1c27;}.cls-2{fill:#e5e5ea;}.cls-3{fill:#aeaeb2;}.cls-4{fill:#d6d6d6;}.cls-5{fill:#231f20;}.cls-6{fill:#111113;}.cls-7{fill:#383634;}</style></defs><g><path class="cls-5" d="M45.13,15.43c-.11-.59-.67-3.06-2.11-3.41-.25-1.09-.74-1.87-1.14-2.34-1.38-1.64-5.14-3.78-9.44-.15-3.55,2.99-5.01,4.64-5.48,5.21-3.33-.85-7.11-1.55-7.62-.53-.28,.56-.36,.85-.42,1.06-.05,.2-.09,.31-.31,.65l-.2,.3c-.45,.66-.91,1.34-.96,2.1-.04,.55-1.83,3.28-4.18,5.58-.91,.89-2.14,1.72-3.34,2.51-1.78,1.19-3.63,2.43-4.62,4.01-1.2,1.91-.85,2.99-.22,4.29l.17,.36c.51,1.08,.91,1.93,2.15,2.6,1.82,.99,5.22,1.83,8.67,1.83,1.95,0,3.92-.27,5.62-.95,2.33-.92,3.19-1.7,3.65-2.12,.09-.09,.2-.18,.23-.18,.88,.4,3.65-.24,5.6-2.88,.77-1.04,1.28-2.11,1.73-3.05,.65-1.36,1.17-2.44,2.18-2.97,.44-.23,.88-.47,1.3-.71,1.1-.61,2.46-1.38,2.85-1.26,.8,.23,1.12,0,2.63-1.08l.67-.48c2.16-1.54,3.36-3.25,3.47-4.95,.09-1.33-.2-2.46-.87-3.44Zm-.82,.08c-.29,.46-1.38,2.06-3.11,3.5,.05-.07,.11-.15,.17-.22,.45-.6,.97-1.28,1.47-3.04,.3-1.05,.37-1.95,.32-2.74,.61,.51,1.02,1.82,1.16,2.5Zm-3.05-5.31c.79,.93,1.57,2.62,.79,5.32-.46,1.62-.91,2.2-1.34,2.77-.36,.47-.73,.96-1.06,1.94-.23,.69-.75,1.27-1.34,1.55,.55-.33,.93-1.04,.93-1.88,0-1.17-.72-2.08-1.63-2.08s-1.63,.91-1.63,2.08c0,.46,.11,.88,.31,1.22-.29-.47-.41-.97-.34-1.51,.11-.83,.67-1.67,1.47-2.19,1.15-.75,2.05-2.13,2.43-2.72l.08-.12c.41-.61,.63-1.18,.76-1.91,.4-1.03,.38-1.97-.06-2.79-.12-.22-.27-.42-.43-.61,.64,.43,1.02,.86,1.06,.92ZM5.75,34.18c-.21-.46-.37-.87-.4-1.32,1.06,.24,4.31,.95,7.31,1.22,.58,.05,1.09,.08,1.54,.08,2.3,0,3.06-.65,4.19-1.63,.93-.81,1.63-.67,2.51-.5,.21,.04,.43,.08,.65,.11l.22,.03c1,.13,1.79,.24,2.4-1.01,.15-.32,.24-.64,.32-.92,.2-.73,.29-1.07,1.19-1.1,.37,0,.7,0,.99,0,1.01,.02,1.88,.04,2.05-1.05,.05-.29,.03-.58,0-.85-.05-.73-.08-1.14,.9-1.4,2.04-.55,3.23-2.11,3.22-4.13,1.12,.18,2.08,.29,2.76,.29,.13,0,.22-.01,.33-.02,.02,.02,.03,.05,.05,.07,.08,.09,.17,.16,.25,.24-3.07,1.44-6.52,5.95-7.73,8.19-1.3,2.4-4.12,3.5-8.88,4.69-4.48,1.12-12.57-.7-13.86-1Zm31.87-13c-.44,0-.82-.58-.82-1.27s.37-1.27,.82-1.27,.82,.58,.82,1.27-.37,1.27-.82,1.27Zm-1.04,.34h0Zm.47,.34c.17,.08,.36,.13,.55,.13-.17,0-.36-.04-.55-.13Zm-.21-.12s.09,.07,.13,.09c-.04-.02-.09-.06-.13-.09Zm-4.71-6.41h0c.53-.25,1.1-.53,1.68-.89,.99-.6,1.76-.94,2.38-1.21,.65-.28,1.16-.51,1.65-.91,1.01-.12,1.79-.05,2.05,.2-.1,.63-.29,1.09-.64,1.61l-.08,.13c-.32,.5-1.19,1.81-2.18,2.47-.08,.04-1.43,.64-4.81-.48-.02,0-.52-.17-1.3-.41,.37-.13,.79-.31,1.25-.52Zm.84-5.17c1.4-1.18,2.67-1.66,3.79-1.77,.27,.06,2.41,.54,3.16,1.91,.23,.42,.29,.88,.21,1.39-1.15-.57-3.74-.03-5.34,.53-2.2,.77-2.85,1.91-3.11,2.42-1.04,.46-1.89,.72-2.17,.8-.51-.15-1.08-.31-1.67-.47,.63-.72,2.11-2.27,5.13-4.81Zm-12.91,4.45c.69-.58,7.21,.87,11.87,2.43,1.84,.61,3.13,.75,4,.72-.34,.44-.57,.93-.7,1.44-3.18-.31-13.25-2.73-15.65-3.31,.07-.15,.1-.27,.14-.39,.05-.19,.11-.41,.34-.88Zm-.96,2.07l.05-.07c1.89,.46,12.57,3.05,16,3.39,0,.41,.1,.81,.28,1.19-3.04-.06-11.94-2.25-16.9-3.59,.15-.3,.36-.61,.58-.92Zm-2.57,5.26c.33,0,.61,.21,.61,.47s-.28,.47-.61,.47-.61-.21-.61-.47,.28-.47,.61-.47Zm-2.4,2.84c.33,0,.61,.21,.61,.47s-.28,.47-.61,.47-.61-.21-.61-.47,.28-.47,.61-.47Zm-3.73,2.32c.79-.53,1.59-1.07,2.33-1.64,.11,.61,.7,1.08,1.4,1.08,.79,0,1.43-.58,1.43-1.28,0-.64-.53-1.17-1.21-1.26,.31-.32,.62-.65,.91-.99,.24,.42,.71,.71,1.27,.71,.79,0,1.43-.58,1.43-1.28,0-.64-.53-1.17-1.21-1.26,.88-1.19,1.49-2.25,1.53-2.76,1.81,.49,8.91,2.36,13.75,3.21,.07,1.72-.88,3.01-2.61,3.47-1.62,.43-1.55,1.48-1.5,2.24,.02,.24,.03,.47,0,.67-.05,.32-.1,.38-1.23,.36-.3,0-.64-.01-1.03,0-1.51,.05-1.75,.96-1.95,1.7-.07,.26-.14,.53-.26,.78-.35,.71-.55,.69-1.55,.55l-.22-.03c-.2-.03-.4-.06-.6-.1-.93-.18-1.97-.38-3.2,.69-1.27,1.1-1.9,1.65-5.12,1.36-3.05-.27-6.35-1.01-7.29-1.23,.1-.35,.27-.74,.56-1.2,.9-1.43,2.67-2.62,4.38-3.76Zm31.66-3.93l-.68,.48c-1.5,1.08-1.53,1.07-1.92,.96-.67-.19-1.7,.35-3.47,1.33-.42,.23-.85,.47-1.28,.7-1.25,.66-1.84,1.9-2.53,3.34-.43,.91-.93,1.94-1.65,2.92-1.77,2.4-4.2,2.8-4.6,2.62-.51-.23-.81,.04-1.12,.32-.42,.38-1.21,1.1-3.4,1.97-4.31,1.7-10.83,.66-13.6-.85-.87-.47-1.22-1.03-1.61-1.83,1.77,.39,6.02,1.24,9.83,1.24,1.36,0,2.67-.11,3.78-.39,4.99-1.25,7.96-2.43,9.4-5.1,1.34-2.48,5.15-7.27,8.02-8.1,.11,.02,.23,.04,.35,.04,.15,0,.31-.02,.47-.05,1-.21,1.91-1.05,2.32-2.12,2.21-1.44,3.7-3.34,4.35-4.28,.37,.71,.52,1.5,.46,2.45-.09,1.45-1.17,2.95-3.13,4.34Z"/><path class="cls-5" d="M23.32,25.79c1.01,0,1.8-.56,1.8-1.28s-.79-1.28-1.8-1.28-1.8,.56-1.8,1.28,.79,1.28,1.8,1.28Zm0-1.75c.59,0,.98,.28,.98,.47s-.39,.47-.98,.47-.98-.28-.98-.47,.39-.47,.98-.47Z"/><path class="cls-5" d="M20.82,25.92c-1.01,0-1.8,.56-1.8,1.28s.79,1.28,1.8,1.28,1.8-.56,1.8-1.28-.79-1.28-1.8-1.28Zm0,1.75c-.59,0-.98-.28-.98-.47s.39-.47,.98-.47,.98,.28,.98,.47-.39,.47-.98,.47Z"/><path class="cls-5" d="M17.11,27.61c.79,0,1.43-.58,1.43-1.28s-.64-1.28-1.43-1.28-1.43,.58-1.43,1.28,.64,1.28,1.43,1.28Zm0-1.75c.33,0,.61,.21,.61,.47s-.28,.47-.61,.47-.61-.21-.61-.47,.28-.47,.61-.47Z"/><path class="cls-5" d="M19.45,24.77c.79,0,1.43-.58,1.43-1.28s-.64-1.28-1.43-1.28-1.43,.58-1.43,1.28,.64,1.28,1.43,1.28Zm0-1.75c.33,0,.61,.21,.61,.47s-.28,.47-.61,.47-.61-.21-.61-.47,.28-.47,.61-.47Z"/></g><g><path class="cls-4" d="M13.5,25.23c0-.25,.28-.47,.61-.47s.62,.22,.62,.47-.28,.47-.62,.47-.61-.21-.61-.47Z"/><path class="cls-4" d="M15.9,22.4c0-.25,.28-.47,.61-.47s.62,.22,.62,.47-.28,.47-.62,.47-.61-.21-.61-.47Z"/><path class="cls-4" d="M18.82,23.48c0-.25,.28-.47,.61-.47s.62,.22,.62,.47-.28,.47-.62,.47-.61-.21-.61-.47Z"/><path class="cls-3" d="M18.26,18.38c-.04,.5-.66,1.56-1.53,2.75,.69,.09,1.21,.63,1.21,1.26,0,.71-.64,1.28-1.43,1.28-.55,0-1.02-.29-1.26-.71-.3,.34-.61,.68-.91,.99,.69,.1,1.21,.63,1.21,1.26,0,.71-.65,1.28-1.43,1.28-.71,0-1.29-.47-1.4-1.07-.74,.58-1.53,1.11-2.33,1.64-1.71,1.14-3.48,2.33-4.38,3.77-.29,.46-.46,.85-.56,1.19,.93,.22,4.24,.95,7.28,1.22,3.22,.3,3.86-.26,5.12-1.35,1.23-1.07,2.28-.88,3.2-.7,.2,.04,.4,.08,.6,.11l.22,.03c.99,.13,1.2,.16,1.55-.56,.12-.25,.2-.52,.27-.78,.19-.74,.44-1.66,1.95-1.7,.38,0,.73,0,1.02,0,1.13,.03,1.17-.04,1.23-.36,.03-.2,0-.43-.01-.67-.05-.77-.12-1.81,1.5-2.25,1.73-.46,2.69-1.75,2.62-3.47-4.84-.85-11.93-2.73-13.75-3.2Zm1.17,3.82c.8,0,1.43,.58,1.43,1.28s-.64,1.28-1.43,1.28-1.42-.58-1.42-1.28,.64-1.28,1.42-1.28Zm-2.34,5.41c-.79,0-1.42-.58-1.42-1.28s.64-1.28,1.42-1.28,1.43,.58,1.43,1.28-.64,1.28-1.43,1.28Zm3.71,.88c-1,0-1.8-.57-1.8-1.28s.8-1.28,1.8-1.28,1.8,.57,1.8,1.28-.79,1.28-1.8,1.28Zm2.51-2.7c-1.01,0-1.8-.56-1.8-1.28s.79-1.28,1.8-1.28,1.8,.57,1.8,1.28-.8,1.28-1.8,1.28Z"/><path class="cls-3" d="M35.4,21.19c-3.03-.06-11.94-2.25-16.9-3.59,.15-.3,.36-.61,.58-.92l.05-.07c1.89,.47,12.56,3.05,15.99,3.39,0,.42,.1,.82,.28,1.19Z"/><path class="cls-3" d="M35.22,19.19c-3.18-.31-13.25-2.73-15.65-3.31,.07-.15,.1-.27,.14-.4,.05-.19,.11-.41,.34-.88,.69-.58,7.21,.88,11.87,2.43,1.84,.62,3.13,.75,4.01,.72-.34,.44-.58,.93-.7,1.44Z"/><path class="cls-2" d="M5.74,34.18c-.22-.46-.37-.87-.4-1.31,1.05,.25,4.31,.95,7.31,1.22,.59,.05,1.09,.08,1.54,.08,2.3,0,3.05-.66,4.19-1.63,.92-.82,1.63-.68,2.52-.51,.21,.04,.43,.08,.65,.11l.21,.03c1,.13,1.79,.24,2.4-1,.16-.32,.24-.64,.32-.93,.2-.74,.29-1.06,1.18-1.09,.37,0,.7,0,.98,0,1,.02,1.88,.04,2.06-1.04,.04-.29,.02-.58,0-.86-.04-.73-.07-1.13,.9-1.39,2.05-.55,3.24-2.12,3.22-4.13,1.11,.18,2.08,.28,2.75,.28,.13,0,.23,0,.33-.02,.02,.03,.04,.05,.06,.08,.08,.09,.17,.16,.25,.24-3.07,1.43-6.51,5.95-7.73,8.19-1.29,2.41-4.12,3.51-8.88,4.69-4.48,1.12-12.57-.7-13.85-1Z"/><path class="cls-6" d="M38.43,19.91c0,.69-.37,1.26-.82,1.26s-.82-.58-.82-1.26,.38-1.26,.82-1.26,.82,.58,.82,1.26Z"/><path class="cls-7" d="M36.97,16.74c-.07,.04-1.42,.64-4.8-.49-.02,0-.53-.17-1.3-.41,.37-.14,.8-.31,1.25-.52,.54-.25,1.1-.54,1.68-.89,.99-.61,1.76-.93,2.38-1.2,.65-.29,1.16-.52,1.65-.92,1-.12,1.79-.05,2.05,.2-.1,.63-.29,1.09-.64,1.62l-.08,.12c-.33,.5-1.18,1.81-2.19,2.48Z"/><path class="cls-1" d="M29.5,15.44c-.52-.15-1.07-.31-1.67-.47,.64-.72,2.12-2.28,5.13-4.81,1.39-1.17,2.68-1.66,3.79-1.77,.27,.05,2.41,.54,3.16,1.91,.23,.42,.29,.88,.21,1.38-1.15-.57-3.75-.03-5.34,.53-2.2,.78-2.85,1.91-3.11,2.43-1.03,.47-1.89,.73-2.17,.81Z"/><path class="cls-1" d="M40.61,9.9c-.12-.22-.27-.43-.43-.61,.64,.44,1.01,.87,1.06,.92,.79,.93,1.56,2.62,.8,5.32-.47,1.62-.92,2.21-1.34,2.77-.36,.47-.73,.95-1.05,1.94-.23,.69-.76,1.26-1.33,1.55,.55-.33,.92-1.03,.92-1.88,0-1.16-.72-2.08-1.63-2.08s-1.63,.92-1.63,2.08c0,.46,.12,.88,.31,1.22-.3-.47-.42-.97-.35-1.51,.11-.83,.68-1.67,1.47-2.19,1.14-.76,2.05-2.13,2.44-2.72l.08-.13c.41-.61,.63-1.18,.76-1.91,.4-1.03,.39-1.97-.07-2.78Z"/><path class="cls-7" d="M42.82,15.76c.31-1.05,.37-1.95,.32-2.75,.61,.52,1.01,1.83,1.16,2.51-.3,.46-1.39,2.06-3.11,3.5,.05-.07,.1-.15,.16-.22,.46-.61,.97-1.28,1.47-3.04Z"/><path class="cls-2" d="M45.18,18.81c-.1,1.45-1.18,2.95-3.13,4.35l-.68,.48c-1.5,1.08-1.53,1.07-1.92,.96-.68-.19-1.7,.35-3.47,1.33-.42,.23-.85,.47-1.28,.7-1.25,.66-1.84,1.9-2.54,3.34-.43,.92-.92,1.94-1.65,2.92-1.77,2.4-4.2,2.79-4.6,2.62-.51-.23-.81,.04-1.11,.33-.43,.38-1.21,1.09-3.4,1.96-4.32,1.71-10.83,.66-13.61-.85-.87-.47-1.21-1.03-1.6-1.83,1.76,.39,6.02,1.24,9.83,1.24,1.36,0,2.67-.11,3.78-.39,4.98-1.24,7.96-2.43,9.4-5.1,1.34-2.48,5.15-7.26,8.03-8.1,.12,.02,.23,.03,.35,.03,.16,0,.31,0,.47-.04,1-.21,1.92-1.05,2.33-2.13,2.22-1.43,3.7-3.34,4.35-4.28,.37,.72,.53,1.5,.47,2.45Z"/><path class="cls-4" d="M23.31,24.04c-.6,0-.98,.28-.98,.47s.39,.47,.98,.47,.98-.28,.98-.47-.4-.47-.98-.47Z"/><path class="cls-4" d="M20.8,26.74c-.59,0-.98,.28-.98,.47s.4,.47,.98,.47,.98-.28,.98-.47-.39-.47-.98-.47Z"/><path class="cls-4" d="M17.09,25.86c-.33,0-.61,.22-.61,.47s.28,.47,.61,.47,.62-.21,.62-.47-.28-.47-.62-.47Z"/></g></svg>