<svg viewBox="0 0 50 50" xmlns="http://www.w3.org/2000/svg"><g fill="#ffaaa1"><path d="m9.99 34.95c.02-.41.07-.94-.2-1.37-.07-.11-.1-.19-.13-.24.15-.02.47-.05 1.11-.03.71.02 1.2.04 1.55.02l.1.27c-.57 1.06-1.7 1.83-2.43 1.86-.03-.07-.02-.34 0-.51z"/><path d="m9.62 31.06c.03-.07.25-.23.39-.33.33-.25.75-.56.91-1.05.04-.12.08-.2.1-.25.12.1.34.32.74.82.45.56.75.95.99 1.19l-.14.26c-1.18.25-2.49-.1-2.99-.64z"/><path d="m12.52 36.91c-.12.01-.21.01-.26 0 .04-.14.16-.42.49-.98.36-.62.61-1.05.75-1.36l.28.04c.66 1 .82 2.36.5 3.03-.09-.01-.3-.15-.46-.24-.34-.22-.76-.49-1.25-.49z"/><path d="m14.57 32.82c0 .33-.26.6-.6.6s-.6-.27-.6-.6.24-.56.53-.59l.56.26c.07.09.11.2.11.33z"/><path d="m14.66 31.51c-.11-.07-.23-.11-.35-.14-.32-1.13-.05-2.43.42-2.95.08.02.25.23.37.36.27.32.61.71 1.1.84.12.03.21.07.26.08-.09.13-.29.37-.76.81-.48.45-.82.76-1.05 1.01z"/><path d="m15.48 35.73c-.22-.67-.37-1.15-.5-1.47l.22-.19c1.19.17 2.31.98 2.58 1.65-.05.07-.32.13-.48.17-.4.12-.9.26-1.23.65-.08.09-.14.15-.19.2-.08-.13-.21-.41-.4-1.02z"/><path d="m18.26 31.57c-.11.4-.24.9-.05 1.39.04.11.07.2.08.25-.16 0-.46-.03-1.09-.16-.7-.14-1.18-.25-1.52-.28l-.04-.29c.74-.94 1.99-1.49 2.72-1.4.02.08-.05.33-.09.5z"/></g><g fill="#ffba7b"><path d="m17.1 25.45c-.1-.61-.07-1.6 1.06-2.24.27-.15.59-.27.95-.37.46-.13.98-.23 1.54-.33-1 1.01-2.33 2.3-2.94 2.63-.19.1-.39.2-.6.3z"/><path d="m12.47 29.71c-.21-.26-.39-.47-.57-.65.78-.71 1.8-1.3 2.48-1.52.75-.25 1.62-.6 2.43-.97h.01c.05 0 .12-.01.17-.03.07-.03.12-.08.16-.12.34-.16.66-.33.96-.49 1.01-.54 3.3-2.92 3.94-3.59 2.95-.33 6.65-.3 9.67-.08-1.1 1.6-4.65 6.17-7.35 7.41-3.06 1.39-5.62.65-5.65.64-.09-.03-.17-.08-.28-.09-.42-.08-.91 0-1.42.19.29-.36.44-.65.36-.96-.11-.46-.64-.6-.95-.67-.23-.07-.45-.32-.66-.57-.27-.32-.56-.65-.98-.66-.24 0-.47.09-.69.3-.59.59-.88 1.75-.79 2.89-.15-.17-.4-.47-.85-1.02z"/><path d="m26.24 17.66c1.03-1.15 2.87-3.15 4.83-5.02 3.08-2.95 6.22-5.03 7.12-4.72.02.01.05.02.09.05.01.03.03.07.05.09.02.04.03.1.04.17.27 1.62-2.43 6.86-3.65 9.04-2.23-.16-4.99-.26-8.49.39z"/></g><path d="m18.88 21.98c-.23.07-.45.14-.65.23 1.14-1.25 2.84-2.22 3.98-2.59 3.89-1.27 7.02-1.59 9.59-1.59 1.39 0 2.62.1 3.71.17.71.05 1.35.11 1.94.12.61.02 1.38.13 1.59.57.22.47-.16 1.39-1.02 2.48-.63.79-.95.76-2.57.47-.74-.13-1.65-.29-2.93-.41-4.3-.39-10.37-.33-13.64.56z" fill="#ff9f9f"/><path d="m37.5 25.42h.01s-.02.01-.03.02c0 0-1.64 1.63-3.18 3.12-.35.33-.77.79-1.3 1.35-1.77 1.91-4.74 5.09-8.83 7.93-4.89 3.37-11.43 4.27-14.73 4.27h-.27c-2.58-.04-3.2-1.16-3.22-1.2s-.04-.08-.07-.1-1.97-2.37 1.16-5.79c.22-.24.54-.69.96-1.24.42-.57.93-1.25 1.38-1.8.26.19.58.33.93.45-.78 0-1.27.1-1.48.45-.24.41.03.87.2 1.15.12.21.1.54.08.86-.03.42-.07.86.22 1.16.17.17.4.27.7.27h.01c.62-.01 1.34-.36 1.97-.88 0 .01-.01.02-.02.04-.56.96-.78 1.51-.53 1.94.24.4.78.38 1.11.37.24 0 .51.17.79.35.29.19.59.38.91.38.08 0 .14-.01.21-.02.24-.07.44-.23.58-.5.1-.19.15-.41.2-.64.14.17.29.29.48.33.04.01.09.01.13.01.39 0 .7-.36.88-.58.15-.19.48-.27.79-.36.4-.12.82-.24 1.01-.61.11-.22.12-.47.01-.75-.19-.52-.66-1.03-1.27-1.44.38.08.71.13.97.13.35 0 .6-.09.76-.27.3-.37.12-.87.01-1.18-.09-.22 0-.54.08-.86.04-.16.08-.33.1-.48.35.04.78.1 1.32.1 1.12 0 2.6-.21 4.22-.95 3.03-1.38 7.09-6.7 7.97-8.12 1.09.11 1.92.25 2.58.37 1.62.29 2.44.44 3.42-.79 1.13-1.44 1.51-2.58 1.12-3.4-.32-.67-1.11-1.03-2.36-1.08-.54-.01-1.13-.05-1.77-.11.93-1.65 3.21-5.99 3.54-8.37.87.84 2.19 2.24 3.2 4.53.2.42.37.82.53 1.18 1.26 2.75 1.6 3.49.21 5.2-1.72 2.12-5.63 5.52-5.67 5.55z" fill="#ff9f9f"/><path d="m44.16 21.89c-.7 1.01-3.75 3.43-5.24 4.56l-.51-.64c.97-.86 3.95-3.54 5.45-5.39.23-.28.41-.56.58-.81.44 1.15.38 1.28-.28 2.28z" fill="#ffba7b"/><path d="m45.1 18.88-.17-.43-.05.02c.24-1.2-.28-2.36-1.11-4.17-.16-.36-.34-.74-.53-1.16-1.24-2.78-2.88-4.33-3.76-5.16-.19-.18-.4-.37-.45-.45-.14-.21-.33-.36-.57-.45-2.01-.68-7.03 3.98-8.01 4.92-2.74 2.62-5.23 5.47-5.69 5.99-.9.21-1.84.46-2.83.79-1.99.65-4.59 2.45-5.49 4.5-.38.88-.43 1.73-.18 2.56-.73.33-1.5.64-2.16.86-.84.28-2.03.98-2.92 1.83-.11-.03-.22-.05-.33-.03-.47.08-.64.59-.75.9-.08.22-.35.42-.61.62-.34.25-.69.51-.74.93-.01.13 0 .25.05.37-.5.59-1.04 1.33-1.5 1.94-.38.52-.72.97-.9 1.17-3.42 3.73-1.51 6.54-1.22 6.92.17.28 1.09 1.6 3.98 1.64h.27c3.41 0 10.18-.92 15.24-4.43 4.17-2.89 7.18-6.12 8.98-8.05.51-.54.92-1 1.26-1.32 1.11-1.08 2.28-2.22 2.84-2.78l.74.93c.15.19.42.22.61.08.2-.15 4.8-3.59 5.78-5.04.97-1.44.88-1.81.21-3.5zm-14.03-6.24c3.09-2.95 6.22-5.03 7.12-4.72.02 0 .06.02.09.05.02.03.04.06.06.09.02.04.04.09.05.17.27 1.63-2.43 6.86-3.65 9.04-2.23-.16-4.98-.26-8.49.4 1.04-1.16 2.87-3.15 4.83-5.03zm-8.86 6.98c3.89-1.27 7.02-1.59 9.59-1.59 1.4 0 2.63.09 3.72.18.7.05 1.34.1 1.93.12.62.02 1.39.13 1.59.56.22.46-.17 1.39-1.02 2.48-.63.79-.95.76-2.56.47-.74-.13-1.66-.3-2.93-.41-4.31-.39-10.38-.33-13.64.56-.23.06-.45.14-.66.22 1.15-1.25 2.85-2.21 3.99-2.59zm-4.05 3.6c.27-.15.59-.28.95-.38.45-.12.97-.23 1.53-.32-.99 1.01-2.33 2.3-2.94 2.63-.18.1-.39.2-.6.3-.1-.6-.07-1.6 1.06-2.23zm-3.77 4.32c.75-.25 1.62-.6 2.43-.98.06 0 .12-.01.18-.04s.11-.07.16-.12c.34-.16.67-.33.97-.49 1.01-.55 3.29-2.92 3.93-3.59 2.95-.32 6.65-.31 9.67-.08-1.11 1.6-4.65 6.17-7.35 7.41-3.06 1.4-5.62.66-5.65.65-.09-.03-.17-.07-.28-.09-.42-.07-.92 0-1.42.19.3-.36.44-.66.36-.96-.11-.46-.64-.6-.95-.68-.23-.06-.45-.32-.66-.56-.27-.32-.56-.65-.98-.67-.25 0-.48.09-.69.3-.59.59-.88 1.75-.8 2.89-.15-.17-.41-.47-.85-1.03-.21-.26-.39-.47-.56-.64.78-.71 1.79-1.3 2.48-1.53zm3.82 5.42c.04.11.07.2.08.25-.17 0-.46-.03-1.09-.16-.69-.15-1.18-.25-1.52-.29l-.05-.29c.74-.94 1.99-1.49 2.72-1.41.02.08-.04.33-.09.5-.1.41-.23.91-.05 1.39zm-8.4.62c-.06-.11-.1-.18-.13-.24.15-.03.46-.05 1.1-.03.71.02 1.2.04 1.55.02l.1.27c-.57 1.06-1.7 1.84-2.43 1.87-.03-.07-.01-.34 0-.51.03-.42.07-.93-.19-1.38zm4.95-5.16c.07.03.25.23.36.36.27.32.61.71 1.1.84.12.03.2.06.26.08-.09.12-.29.36-.76.8-.48.45-.82.76-1.05 1.01-.11-.06-.22-.11-.35-.13-.31-1.13-.06-2.43.43-2.96zm-.28 4.07c.06.1.11.2.11.33 0 .33-.27.6-.6.6s-.6-.27-.6-.6c0-.31.23-.55.53-.59zm-1.71 3.44c.36-.61.61-1.04.75-1.35l.29.04c.66 1 .81 2.37.49 3.03-.08 0-.3-.15-.45-.24-.34-.22-.76-.48-1.25-.48-.02 0-.04 0-.05 0-.12 0-.21 0-.27 0 .05-.14.17-.43.49-.99zm2.23-1.67.22-.19c1.19.18 2.3.98 2.58 1.66-.06.06-.31.13-.48.17-.4.11-.9.25-1.23.65-.08.09-.14.16-.18.2-.08-.13-.21-.41-.41-1.03-.22-.68-.37-1.15-.51-1.46zm-4.97-3.53c.34-.25.76-.55.92-1.04.04-.12.07-.2.1-.25.12.09.34.31.74.82.44.55.75.94.99 1.19l-.14.26c-1.17.26-2.5-.1-3-.64.03-.07.25-.23.39-.33zm24.29-2.16c-.34.33-.77.79-1.29 1.35-1.77 1.9-4.74 5.09-8.84 7.93-4.88 3.38-11.42 4.27-14.73 4.27-.09 0-.18 0-.26 0-2.58-.04-3.21-1.16-3.23-1.2-.02-.03-.04-.07-.06-.1-.02-.02-1.97-2.37 1.17-5.79.21-.23.54-.68.96-1.24.42-.57.92-1.24 1.38-1.8.26.19.57.34.93.45-.79 0-1.27.1-1.48.45-.24.41.03.87.2 1.15.12.2.1.54.07.86-.03.42-.06.85.23 1.16.17.18.4.27.7.27.62 0 1.34-.35 1.98-.88 0 .02-.02.03-.03.04-.55.95-.79 1.52-.54 1.94.24.41.79.38 1.11.37.24 0 .52.17.8.35.29.19.6.38.92.38.07 0 .14 0 .21-.03.24-.06.43-.23.57-.49.1-.19.16-.41.2-.65.14.17.28.3.47.33.04 0 .09.01.13.01.4 0 .7-.36.89-.58.15-.18.48-.27.79-.36.41-.11.83-.23 1.02-.6.11-.22.12-.47.01-.75-.19-.52-.67-1.03-1.28-1.43.38.07.71.13.97.13.35 0 .59-.08.76-.27.31-.36.12-.87 0-1.17-.08-.22 0-.55.08-.86.04-.16.08-.32.1-.48.34.05.79.1 1.32.1 1.12 0 2.6-.2 4.22-.94 3.02-1.39 7.09-6.7 7.97-8.13 1.08.11 1.91.25 2.58.37 1.62.29 2.44.44 3.41-.8 1.13-1.44 1.51-2.58 1.13-3.4-.32-.68-1.11-1.04-2.37-1.07-.54-.02-1.13-.06-1.77-.11.92-1.66 3.21-6 3.53-8.38.88.84 2.19 2.25 3.21 4.54.19.42.37.81.53 1.17 1.26 2.76 1.6 3.5.21 5.21-1.72 2.12-5.63 5.52-5.67 5.55s-.02.01-.02.02c0 0-1.65 1.63-3.19 3.12zm9.85-6.67c-.69 1.01-3.74 3.44-5.23 4.57l-.51-.65c.97-.86 3.96-3.54 5.46-5.39.23-.29.42-.55.57-.81.44 1.15.39 1.29-.28 2.28z" fill="#231f20"/></svg>