<?xml version="1.0" encoding="UTF-8"?><svg id="Layer_1" xmlns="http://www.w3.org/2000/svg" viewBox="0 0 50 50"><defs><style>.cls-1{fill:#ffba7b;}.cls-2{fill:#ffaaa1;}.cls-3{fill:#231f20;}</style></defs><path class="cls-3" d="M43.65,15.38c.32-.27,.58-.53,.71-.75,.6-1.01,.15-1.55,.1-1.6l-.21-.23-2.28,1.33c-.34-1.6-1.1-2.65-1.31-2.92-.03-.13-.05-.26-.09-.4-.3-1.21-1.05-2.02-2.18-2.34-2.61-.74-6.39,1.22-7.69,2.49-.87,.85-1.34,1.86-1.58,2.72-2.38-.41-5.13-.67-5.57,.2-.51,1.02-.4,1.71-.39,1.79l.03,.17,.15,.09c.12,.07,1.86,1.08,5.21,1.74,.13,.98,.53,3.42,1.49,4.8-.85,.99-1.74,2.11-2.62,3.38-1.47,2.1-3.12,4-3.6,4.54-.76-.21-1.57-.37-2.4-.47-.03-.06-.08-.12-.14-.16-.09-.05-3.3-1.6-4.47-2.07-.36-.14-.85-.34-1.1,0-1.32,.54-5.27,2.5-4.76,6.18-1.55,.75-3.04,1.45-3.18,1.51-.22,.09-2.11,.9-2.04,2.21,0,.56,.27,1.1,.82,1.61,1.47,1.38,4.71,2.27,5.8,2.27,.04,0,.07,0,.1,0,.88-.05,4.81-.96,8.28-1.75,1.05-.24,2.03-.46,2.83-.64,.29-.07,.57-.14,.85-.21h.01s.02,0,.03-.01c2.8-.74,4.88-1.85,6.17-3.32,.21-.24,.4-.5,.6-.8h0c.57-.88,1.08-1.96,1.57-3.02,.4-.84,.77-1.64,1.14-2.24,1.43-2.35,2.45-3.33,2.69-3.55,.26-.05,.62-.2,1.04-.42l-.3,3.83,3.63,1.07,3.27-1.86-.17-.33s-.8-1.61-.68-4.76c.1-2.69,.66-4.92,.71-5.12,.16-.26,.29-.54,.35-.82,.25-1.1-.27-1.78-.82-2.15Zm.06,1.98c-.19,.85-1.23,1.76-2.04,2.34,.2-1.32,.29-2.6,.32-3.12,.31-.2,.65-.43,.99-.68,.32,.13,.95,.52,.73,1.46Zm-5.37,6.83c.12-.2,.24-.42,.33-.66,.44-1.15,1-3.85,1.19-4.75,.26-.03,.51-.12,.72-.28,.31-.24,.52-.59,.57-.98v-.07c-.14,1.72-.48,4.32-1.09,5.15-.42,.58-1.07,1.13-1.71,1.58Zm-6.41-8.5c-.1-.58-.2-2.1,1.29-3.17,1.48-1.06,3.94-1.85,5.5-1.35,.69,.22,1.14,.67,1.38,1.36,.26,1.91-.16,2.53-.31,2.68l-.48-.06c-.39-.05-.78,.05-1.1,.3-.04,.03-.06,.08-.1,.11-2.08,.39-4.22,.36-6.19,.13Zm6.49,.84c.02-.19,.12-.35,.27-.47,.13-.1,.27-.15,.43-.15,.03,0,.06,0,.09,0l.63,.08c.19,.02,.35,.12,.47,.27,.12,.15,.17,.33,.14,.52l-.08,.63c-.02,.19-.12,.35-.27,.47-.15,.12-.34,.17-.52,.14l-.63-.08c-.19-.02-.35-.12-.47-.27-.12-.15-.17-.33-.14-.52l.08-.63Zm5.26-2.29c-.26,.44-1.54,1.33-2.55,1.96-.05-.14-.12-.28-.21-.4-.03-.04-.07-.06-.11-.09l3.01-1.76c-.03,.08-.08,.18-.14,.3Zm-2.85,.55c.08-.34,.14-.77,.12-1.33,.12,.33,.21,.7,.28,1.1l-.4,.24Zm-9.61-3.27c1.2-1.17,4.74-2.92,6.94-2.3,.81,.23,1.32,.77,1.57,1.61-.24-.16-.49-.3-.78-.4-1.87-.6-4.58,.3-6.19,1.46-1.63,1.17-1.72,2.83-1.63,3.69-.52-.08-1.03-.16-1.52-.26,.03-.69,.26-2.48,1.61-3.8Zm-2.3,2.92c-.05,.28-.07,.52-.09,.72-1.59-.36-2.9-.77-3.75-1.07,.89-.03,2.31,.1,3.84,.35Zm-4.84,.11c1.27,.5,5.7,2.09,10.58,2.09,.99,0,1.99-.09,2.99-.24,0,0,0,.02,0,.02l-.08,.63c-.01,.1-.02,.19,0,.29-8.07,.61-12.71-1.5-13.65-1.98,0-.17,.04-.45,.18-.81Zm8.87,4.86c-.18-.3-.39-.75-.59-1.25,.62,.04,1.27,.06,1.95,.07-.38,.31-.84,.7-1.36,1.18Zm-3.62-1.6c.67,.11,1.39,.21,2.17,.28,.21,.59,.52,1.35,.87,1.86-.57,.55-1.18,1.19-1.83,1.91-.66-1.08-1.05-2.9-1.22-4.05Zm-1.3,8.49c3.09-4.42,6.41-7.31,7.61-8.09,.7-.02,1.43-.05,2.19-.11,.01,.01,.02,.03,.03,.05,.24,.31,.59,.52,.98,.57l.21,.03c-.14,.69-.44,2.11-.75,3.26-.7,.36-3.47,1.92-5.56,5.08-1.56,2.37-2.43,4.34-2.9,5.4-.09,.21-.19,.42-.26,.57-1.17-.78-2.89-1.74-4.98-2.41,.68-.78,2.12-2.48,3.42-4.34Zm-8.46,3.52c-.47,0-.94,.03-1.42,.08-.35-.37-.65-.69-.88-.95l-.29-.32c.73,.32,1.77,.8,2.58,1.19Zm-7.19,10.88c-.71,.06-3.93-.74-5.32-2.05-.38-.36-.57-.7-.57-1.06-.03-.66,1.14-1.3,1.56-1.47,.25-.1,5.58-2.65,6.7-3.25,2.46,.7,4.92,4.73,5.65,6.13-3.25,.74-7.21,1.65-8.02,1.7Zm-.53-7.26c.04-.09,.1-.18,.18-.26,.26-.26,.69-.4,1.25-.44-.42,.21-.91,.45-1.43,.7Zm11.51,4.88c-.64,.14-1.39,.31-2.2,.5-.74-1.5-3.68-6.43-6.72-6.82-1.19-.16-2.1-.02-2.7,.41,.53-2.19,3.02-3.47,4.1-3.93,.14,.18,.31,.39,.56,.66l.29,.32c.85,.96,2.67,2.81,4.86,4.93,1.61,1.57,2.17,3.13,2.34,3.8-.17,.04-.34,.09-.52,.13Zm6.64-3.3c-1.12,1.28-2.93,2.27-5.37,2.97-.2-.78-.81-2.46-2.56-4.16-1.24-1.2-2.35-2.31-3.24-3.22,5.58-.33,10.37,2.96,11.5,3.95-.11,.16-.23,.33-.34,.46Zm6.19-9.77s-.02,.02-.03,.03h0s-1.2,.96-2.93,3.79c-.39,.64-.77,1.45-1.18,2.31-.41,.88-.84,1.77-1.29,2.52-.15-.12-.33-.26-.54-.42,.08-.16,.18-.38,.32-.7,.46-1.04,1.31-2.97,2.84-5.29,1.54-2.33,3.5-3.76,4.59-4.43-.02,.06-.04,.12-.06,.17-.46,1.2-1.71,2-1.72,2.01Zm2.25-.23c.7-.47,1.42-1.06,1.94-1.66-.11,1.89-.21,4.61,0,6.07l-2.23-.66,.3-3.75Zm2.71,4.38c-.27-1.67,0-6.13,.14-7.92,.06-.23,.12-.48,.17-.73,.29-.18,.95-.61,1.57-1.18-.18,.97-.38,2.33-.43,3.85-.1,2.55,.37,4.15,.62,4.8l-2.06,1.17Z"/><g><path class="cls-1" d="M12.08,33.18c.26-.26,.7-.4,1.25-.44-.43,.21-.91,.45-1.43,.71,.04-.09,.1-.18,.18-.27Z"/><path class="cls-1" d="M20.45,38.99c-3.24,.75-7.21,1.66-8.02,1.71-.72,.05-3.93-.75-5.32-2.06-.38-.36-.58-.71-.58-1.05-.03-.67,1.14-1.3,1.56-1.47,.25-.1,5.58-2.65,6.7-3.25,2.46,.71,4.91,4.73,5.65,6.13Z"/><path class="cls-1" d="M17.31,28.95l-.28-.32c.73,.32,1.76,.8,2.58,1.18-.47,0-.93,.03-1.41,.08-.36-.37-.66-.69-.89-.94Z"/><path class="cls-2" d="M21.59,34.4c1.61,1.56,2.17,3.12,2.35,3.8-.18,.04-.35,.09-.53,.13-.64,.14-1.39,.31-2.2,.5-.75-1.5-3.68-6.42-6.72-6.82-1.19-.16-2.1-.02-2.7,.41,.53-2.19,3.01-3.47,4.1-3.93,.14,.19,.31,.39,.56,.67l.29,.32c.86,.96,2.67,2.8,4.85,4.93Z"/><path class="cls-1" d="M28.88,15.15c-1.59-.36-2.9-.77-3.75-1.06,.89-.03,2.31,.1,3.84,.35-.05,.28-.08,.53-.09,.72Z"/><path class="cls-1" d="M30.4,34.57c-.12,.16-.23,.33-.35,.46-1.11,1.28-2.92,2.28-5.36,2.97-.21-.78-.82-2.47-2.57-4.16-1.23-1.21-2.35-2.32-3.23-3.22,5.58-.33,10.37,2.96,11.51,3.95Z"/><path class="cls-1" d="M31.56,18.09c.21,.59,.53,1.35,.88,1.86-.57,.55-1.18,1.18-1.83,1.91-.67-1.07-1.05-2.89-1.22-4.05,.68,.11,1.39,.21,2.18,.28Z"/><path class="cls-2" d="M23.95,15.35c0-.17,.04-.45,.18-.81,1.26,.5,5.7,2.09,10.58,2.09,.98,0,1.99-.09,2.98-.24,0,0,0,.02,0,.03l-.08,.63c0,.09,0,.19,0,.29-8.07,.61-12.7-1.5-13.65-1.99Z"/><path class="cls-2" d="M38.03,23.08c-.02,.06-.04,.12-.06,.17-.46,1.19-1.71,2-1.72,2.01l-.03,.03s-1.2,.96-2.93,3.8c-.39,.64-.77,1.45-1.17,2.31-.42,.89-.85,1.77-1.29,2.53-.14-.12-.33-.27-.55-.43,.09-.15,.19-.38,.33-.7,.46-1.04,1.31-2.97,2.84-5.29,1.53-2.33,3.5-3.76,4.59-4.43Z"/><path class="cls-1" d="M28.08,26.3c3.08-4.43,6.4-7.32,7.61-8.1,.71,0,1.43-.05,2.19-.11,0,.02,.02,.03,.03,.05,.24,.31,.6,.52,.98,.57l.21,.02c-.14,.69-.44,2.12-.75,3.26-.7,.36-3.47,1.92-5.56,5.08-1.56,2.37-2.43,4.35-2.89,5.4-.1,.22-.19,.43-.26,.57-1.16-.78-2.89-1.73-4.98-2.41,.68-.78,2.13-2.48,3.42-4.34Z"/><path class="cls-1" d="M31.18,15.58c-.53-.08-1.03-.17-1.52-.26,.03-.7,.26-2.49,1.61-3.81,1.19-1.16,4.74-2.92,6.93-2.3,.81,.23,1.32,.77,1.58,1.61-.24-.17-.5-.31-.79-.4-1.86-.61-4.58,.3-6.19,1.45-1.64,1.17-1.72,2.83-1.63,3.7Z"/><path class="cls-2" d="M40.45,23.37c-.12,1.89-.22,4.61,0,6.07l-2.23-.66,.3-3.75c.71-.47,1.41-1.05,1.94-1.66Z"/><path class="cls-2" d="M39.87,16c.19,.02,.36,.12,.47,.27,.12,.15,.17,.33,.15,.52l-.09,.63c-.02,.19-.12,.35-.27,.47-.15,.12-.34,.17-.52,.14l-.63-.08c-.19-.02-.35-.12-.47-.27-.12-.15-.17-.34-.14-.52l.08-.63c.02-.19,.12-.36,.27-.47,.13-.1,.28-.15,.43-.15h.09l.63,.09Z"/><path class="cls-2" d="M39.88,18.77c.26-.03,.52-.11,.73-.28,.32-.24,.52-.59,.57-.98-.15,1.73-.49,4.27-1.09,5.08-.42,.58-1.07,1.13-1.71,1.59,.13-.21,.24-.43,.33-.66,.44-1.15,1-3.86,1.18-4.75Z"/><path class="cls-2" d="M41.28,14.55l-.41,.24c.09-.35,.14-.78,.12-1.33,.12,.33,.22,.7,.29,1.09Z"/><path class="cls-2" d="M43.27,28.23l-2.06,1.17c-.27-1.67,0-6.13,.14-7.92,.06-.24,.12-.48,.17-.74,.29-.18,.94-.61,1.57-1.17-.18,.96-.38,2.33-.44,3.85-.09,2.56,.37,4.15,.62,4.8Z"/><path class="cls-2" d="M43.75,17.35c-.2,.86-1.23,1.76-2.04,2.35,.2-1.32,.29-2.61,.32-3.12,.31-.2,.65-.44,.98-.68,.32,.13,.94,.52,.74,1.45Z"/><path class="cls-2" d="M40.95,15.79s-.07-.06-.1-.09l3.01-1.76c-.03,.08-.08,.18-.15,.3-.26,.44-1.54,1.33-2.55,1.96-.05-.15-.12-.28-.22-.41Z"/></g></svg>