<?xml version="1.0" encoding="UTF-8"?>
<svg id="Layer_1" data-name="Layer 1" xmlns="http://www.w3.org/2000/svg" viewBox="0 0 50 50">
  <defs>
    <style>
      .cls-1 {
        fill: #d37f46;
      }

      .cls-2 {
        fill: #231f20;
      }

      .cls-3 {
        fill: #383634;
      }

      .cls-4 {
        fill: #5f493f;
      }
    </style>
  </defs>
  <path class="cls-1" d="M21.75,21.61c.82-1.62,1.54-2.86,2.18-3.83,.18,.01,.79,.05,1.56,.18-.01,.02-.02,.05-.04,.07-.95,1.85-2.59,2.98-3.71,3.57Z"/>
  <path class="cls-1" d="M26.06,17.06c-.59-.11-1.1-.18-1.48-.22,.3-.41,.58-.76,.85-1.07,.07,.04,.15,.06,.22,.06,.01,0,.51,.01,1.24,.12-.3,.38-.58,.75-.82,1.1Z"/>
  <path class="cls-1" d="M27.61,15.07c-.53-.1-.99-.15-1.33-.18,.35-.33,.68-.59,.98-.85,.12-.1,.24-.21,.36-.3,.21,.01,.57,.06,1.03,.13-.34,.39-.69,.8-1.04,1.2Z"/>
  <path class="cls-1" d="M29.41,13.01c-.27-.06-.51-.11-.74-.13,.55-.42,1.13-.8,1.68-1.03-.22,.3-.57,.73-.95,1.16Z"/>
  <path class="cls-1" d="M27.98,16.15c.64,.15,1.34,.34,2.02,.63-.21,.44-.4,.92-.58,1.42-.76-.4-1.58-.69-2.34-.9,.28-.38,.58-.76,.9-1.15Z"/>
  <path class="cls-1" d="M30.45,15.9c-.58-.25-1.19-.44-1.76-.58,.28-.32,.55-.63,.8-.92,.1-.1,.17-.18,.25-.28,.5,.12,1.04,.3,1.58,.55-.11,.12-.22,.24-.33,.39-.16,.21-.35,.51-.55,.85Z"/>
  <path class="cls-1" d="M32.07,13.92c-.53-.27-1.08-.47-1.6-.63,.69-.82,1.02-1.3,1.04-1.66,.8,.08,1.84,.93,2.31,1.37-.61,.15-1.19,.46-1.76,.92Z"/>
  <path class="cls-1" d="M10.73,34.15c.9-1.25,5.2-4.75,7.04-6.25,.4-.31,.71-.57,.91-.74,.97-.8,1.51-2.11,1.99-3.26,.13-.32,.27-.61,.4-.88,.82-.32,3.77-1.59,5.27-4.53,.05-.11,.12-.22,.18-.32,.84,.21,1.77,.52,2.59,.98-.22,.79-.36,1.58-.36,2.28,0,1.7,1.25,2.29,2.36,2.81,.55,.25,1.1,.52,1.5,.9,1.03,.98,2,2.28,2.3,2.7-.05,.42-.04,.88,.11,1.39,.17,.62,.5,1.45,.85,2.34,.39,1.01,1.02,2.62,1.05,3.17-1.83,1.33-4.68,2.36-9.97,3.59-8.63,2.01-15.39,.05-16.33-.63-.91-.65-.86-2.18,.11-3.55Z"/>
  <path class="cls-4" d="M40.43,34.71c.13-.21,.27-.44,.39-.65-.59,1.04-1.02,1.96-1.07,2.07,0,.02-.69,2.51-2.57,3.96-5.2,4.01-16.47,5.23-20.88,4.57-4.25-.64-6.28-1.48-7.02-2.87-.19-.36-.24-1.14-.21-1.97,.13,.19,.27,.39,.45,.58,1.31,1.39,4.58,2.12,8.72,2.12,2.91,0,6.24-.35,9.64-1.09,8.54-1.84,11.12-4.43,12.53-6.71Z"/>
  <path class="cls-3" d="M35.2,12.94c-.11-.02-.22-.02-.33-.04,.68-.61,2.02-1.71,2.85-2.01,1.36-.51,4.96-.85,5.9-.19,.28,1.22,.15,4.07-.74,5.97-.16,.33-.36,.52-.65,.58-.84,.21-2.19-.62-2.86-1.14l-3.95-3.08c-.06-.06-.13-.08-.22-.1Z"/>
  <path class="cls-1" d="M32.99,14.45c.56-.39,1.2-.65,1.94-.57l3.84,3c.51,.4,2.28,1.67,3.7,1.32,.58-.13,1.03-.53,1.31-1.13,.5-1.05,.78-2.33,.9-3.53,.18,.96,.33,1.96,.4,2.74-.04,1.01-.39,3.66-1.55,4.3-.42,.23-.96,.17-1.61-.21-.8-.46-1.45-.84-2.01-1.16-2.07-1.21-2.76-1.62-3.62-1.33-1.11,.36-2.67,2.54-2.22,4.03,.18,.62,.7,1.27,1.21,1.9,.35,.44,1.01,1.24,.96,1.47l-.13,.16c-.25,.34-.57,.75-.81,1.24-.47-.63-1.21-1.53-2-2.27-.51-.48-1.14-.78-1.74-1.07-1.15-.55-1.81-.9-1.81-1.93,0-.51,.1-1.1,.24-1.7,.24,.21,.48,.41,.68,.65,.1,.11,.24,.17,.38,.17,.12,0,.23-.04,.33-.11,.21-.18,.23-.48,.05-.69-.33-.4-.71-.73-1.13-1.03,.19-.53,.4-1.05,.62-1.51,.58,.33,1.11,.73,1.54,1.22,.1,.12,.23,.18,.38,.18,.11,0,.22-.04,.32-.12,.21-.17,.23-.48,.06-.69-.51-.61-1.15-1.09-1.84-1.47,.16-.28,.32-.53,.44-.7,.13-.17,.28-.34,.45-.51,.52,.32,1.02,.71,1.43,1.21,.1,.11,.24,.17,.38,.17,.12,0,.23-.04,.33-.12,.21-.17,.23-.48,.06-.69-.42-.5-.91-.91-1.43-1.25Z"/>
  <path class="cls-1" d="M45.77,18.4c.05,.24,.1,.51,.16,.82,.05,.33,.1,.62,.15,.88,.38,2.02,.46,2.51-1.78,4.11-1.97,1.44-2.65,2.97-3.43,4.74-.36,.84-.79,1.79-1.39,2.85-.5,.85-1.02,1.58-1.7,2.22-.17-.65-.5-1.54-.99-2.8-.33-.86-.65-1.68-.81-2.25-.36-1.28,.3-2.14,.9-2.91l.13-.17c.58-.76-.21-1.73-.97-2.68-.42-.53-.91-1.13-1.04-1.56-.28-.96,.97-2.62,1.59-2.82,.44-.15,.95,.15,2.82,1.25,.56,.33,1.22,.71,2.02,1.16,.97,.56,1.84,.63,2.58,.21,.99-.55,1.5-1.88,1.77-3.04Z"/>
  <path class="cls-4" d="M10.24,39.73c-.68-.73-.88-1.43-.88-2.01,.17,.3,.39,.57,.69,.79,.95,.69,4.48,1.7,9.27,1.7,2.36,0,5.04-.24,7.86-.91,8.91-2.07,11.18-3.63,13.13-7,.64-1.09,1.07-2.07,1.45-2.94,.78-1.77,1.33-3.05,3.1-4.33,.95-.68,1.53-1.22,1.89-1.76,.12,.24,.18,.48,.16,.73-.05,.69-.68,1.5-1.9,2.47-1.79,1.42-3.16,3.83-4.39,5.95-.35,.63-.7,1.22-1.04,1.78-1.3,2.11-3.72,4.51-11.9,6.28-7.68,1.66-15.51,1.33-17.45-.74Z"/>
  <path class="cls-4" d="M47.2,28.28c0,1.3-1.95,3.11-3.28,4.17v-.96c0-.18-.1-.35-.27-.44-.16-.08-.35-.08-.5,.02-.74,.51-1.49,1.58-2.11,2.61,.15-.25,.29-.52,.45-.78,1.16-2.06,2.5-4.37,4.14-5.68,.62-.48,1.1-.96,1.47-1.41,.05,.73,.1,1.59,.1,2.46Z"/>
  <path class="cls-2" d="M47.92,23.94h0c.02-.62-.21-1.21-.69-1.79,.1-.62,0-1.31-.16-2.22-.05-.26-.1-.55-.15-.86-.31-1.93-.62-2.71-.86-3.03-.11-1.02-.58-4.92-1.62-5.97-1.34-1.34-6.03-.48-7.03-.11-1.01,.37-2.44,1.57-3.08,2.14-.55-.49-1.66-1.34-2.69-1.45-1.5-.16-3.11,1.03-4.47,2.21-.16,.14-.33,.27-.5,.41-1.42,1.15-3.19,2.59-6.38,9.13-.17,.34-.33,.73-.5,1.12-.44,1.05-.93,2.23-1.71,2.88-.19,.16-.5,.41-.9,.73-2.19,1.77-6.26,5.08-7.22,6.44-.47,.67-.76,1.37-.88,2.03-.26,.35-.51,.87-.62,1.5h-.06c-.07,.38-.63,3.83,.05,5.13,1.04,1.99,3.85,2.79,7.73,3.38,.77,.11,1.73,.18,2.84,.18,5.47,0,14.3-1.47,18.79-4.94,2.15-1.66,2.89-4.37,2.9-4.4,.36-.79,1.32-2.67,2.26-3.82v.79c0,.18,.1,.35,.26,.44,.16,.09,.36,.07,.51-.03,.46-.32,4.48-3.18,4.48-5.55,0-2.19-.27-4.24-.28-4.33Zm-3.61,.27c-1.99,1.43-2.66,2.96-3.43,4.73-.37,.84-.79,1.79-1.39,2.84-.49,.85-1.02,1.57-1.7,2.22-.17-.65-.5-1.55-.99-2.8-.34-.86-.66-1.68-.82-2.25-.36-1.28,.31-2.15,.9-2.91l.13-.17c.58-.77-.2-1.74-.96-2.68-.43-.53-.91-1.13-1.04-1.56-.28-.95,.96-2.62,1.59-2.83,.43-.14,.94,.14,2.83,1.25,.55,.32,1.22,.71,2.02,1.17,.97,.55,1.84,.62,2.58,.21,1-.56,1.51-1.88,1.77-3.05,.05,.25,.1,.51,.15,.83,.05,.32,.11,.61,.15,.88,.37,2.02,.45,2.5-1.78,4.11Zm-9.02,2.46c-.48-.62-1.21-1.52-2-2.26-.51-.49-1.14-.78-1.75-1.07-1.15-.54-1.81-.9-1.81-1.92,0-.52,.1-1.1,.25-1.7,.25,.2,.48,.41,.68,.65,.1,.12,.24,.17,.38,.17,.11,0,.22-.04,.32-.12,.21-.17,.23-.48,.06-.69-.33-.39-.72-.73-1.13-1.02,.18-.54,.39-1.05,.61-1.52,.58,.33,1.11,.73,1.54,1.23,.1,.12,.24,.17,.38,.17,.11,0,.22-.04,.32-.12,.21-.17,.23-.48,.06-.69-.51-.61-1.16-1.09-1.84-1.47,.16-.28,.31-.53,.44-.7,.13-.17,.28-.34,.44-.51,.53,.32,1.03,.72,1.44,1.21,.1,.12,.24,.17,.38,.17,.11,0,.22-.04,.32-.12,.21-.17,.23-.48,.06-.69-.42-.5-.91-.91-1.42-1.25,.55-.39,1.2-.65,1.94-.56l3.84,3c.51,.4,2.28,1.66,3.7,1.32,.58-.14,1.03-.53,1.31-1.13,.49-1.05,.77-2.33,.89-3.52,.19,.95,.33,1.96,.4,2.74-.04,1-.39,3.65-1.55,4.3-.43,.24-.96,.17-1.62-.2-.8-.45-1.46-.84-2.01-1.16-2.07-1.21-2.77-1.62-3.63-1.33-1.11,.37-2.66,2.55-2.22,4.04,.18,.62,.71,1.27,1.22,1.9,.35,.43,1,1.24,.95,1.46l-.13,.16c-.26,.33-.57,.74-.81,1.23Zm-11.34-8.9c.19,0,.78,.05,1.57,.18-.01,.02-.03,.05-.04,.07-.95,1.86-2.59,2.99-3.71,3.58,.83-1.62,1.55-2.86,2.18-3.84Zm.64-.94c.3-.42,.59-.77,.85-1.08,.07,.04,.14,.06,.22,.06,.02,0,.51,.02,1.23,.12-.3,.38-.58,.75-.83,1.11-.59-.11-1.1-.18-1.47-.22Zm3.41-.69c.64,.14,1.34,.34,2.02,.62-.21,.44-.41,.92-.59,1.42-.76-.41-1.57-.7-2.33-.9,.27-.37,.57-.76,.9-1.15Zm.69-3.28c.55-.42,1.12-.79,1.68-1.02-.21,.3-.56,.72-.95,1.16-.26-.06-.51-.1-.73-.14Zm1.08,1.23c.5,.13,1.04,.31,1.57,.55-.11,.13-.22,.25-.33,.39-.16,.2-.35,.51-.54,.86-.59-.25-1.19-.44-1.76-.59,.27-.31,.54-.62,.8-.91,.09-.1,.17-.19,.25-.29Zm7.97-3.22c1.35-.5,4.96-.85,5.9-.18,.28,1.21,.15,4.07-.73,5.96-.16,.33-.36,.52-.65,.59-.84,.21-2.2-.62-2.87-1.14l-3.94-3.08c-.07-.05-.14-.08-.22-.1-.11-.02-.22-.02-.33-.03,.68-.61,2.02-1.72,2.85-2.02Zm-3.9,2.11c-.6,.15-1.19,.46-1.75,.92-.54-.27-1.08-.48-1.61-.64,.7-.82,1.01-1.29,1.05-1.65,.79,.09,1.84,.93,2.31,1.37Zm-6.57,1.04c.13-.1,.24-.2,.36-.3,.2,.02,.57,.05,1.03,.13-.34,.39-.7,.79-1.04,1.2-.53-.1-1-.15-1.34-.18,.35-.33,.68-.6,.99-.85ZM10.74,34.14c.89-1.25,5.2-4.75,7.04-6.25,.4-.32,.71-.58,.91-.74,.96-.8,1.51-2.11,1.99-3.26,.13-.32,.26-.61,.39-.9,.82-.31,3.77-1.59,5.27-4.53,.05-.1,.12-.21,.18-.31,.84,.2,1.77,.52,2.6,.99-.22,.78-.37,1.57-.37,2.28,0,1.7,1.26,2.29,2.37,2.81,.54,.25,1.1,.51,1.49,.89,1.03,.98,2,2.28,2.31,2.71-.05,.42-.04,.88,.1,1.39,.17,.62,.5,1.45,.85,2.34,.39,1,1.02,2.62,1.05,3.16-1.83,1.34-4.67,2.36-9.96,3.6-8.63,2.01-15.39,.05-16.34-.64-.91-.65-.86-2.18,.11-3.55Zm-.69,4.35c.95,.69,4.49,1.7,9.27,1.7,2.37,0,5.04-.25,7.86-.91,8.91-2.08,11.19-3.64,13.14-7,.64-1.1,1.07-2.08,1.44-2.94,.78-1.77,1.34-3.05,3.11-4.33,.94-.68,1.53-1.23,1.89-1.76,.12,.25,.18,.49,.16,.73-.06,.69-.68,1.5-1.9,2.47-1.79,1.42-3.17,3.83-4.39,5.95-.36,.62-.7,1.22-1.04,1.78-1.3,2.11-3.73,4.5-11.9,6.27-7.68,1.66-15.5,1.33-17.44-.74-.68-.73-.89-1.42-.9-2.01,.17,.3,.39,.57,.69,.79Zm29.7-2.37s-.69,2.5-2.57,3.96c-5.19,4.01-16.47,5.24-20.88,4.57-4.25-.64-6.28-1.47-7.01-2.87-.19-.37-.24-1.14-.21-1.98,.13,.2,.27,.39,.45,.59,1.31,1.39,4.57,2.12,8.72,2.12,2.91,0,6.25-.36,9.65-1.09,8.54-1.85,11.12-4.43,12.53-6.71,.13-.21,.26-.43,.39-.65-.6,1.04-1.02,1.96-1.07,2.08Zm4.17-3.68v-.97c0-.18-.1-.35-.26-.43-.16-.09-.36-.08-.51,.03-.73,.5-1.49,1.57-2.11,2.6,.15-.26,.3-.51,.45-.78,1.17-2.05,2.5-4.37,4.14-5.67,.62-.49,1.11-.96,1.47-1.41,.05,.72,.1,1.58,.1,2.46,0,1.29-1.95,3.11-3.28,4.17Z"/>
</svg>