<?xml version="1.0" encoding="UTF-8"?><svg id="Layer_1" xmlns="http://www.w3.org/2000/svg" viewBox="0 0 50 50"><defs><style>.cls-1{fill:#ff9e0c;}.cls-2{fill:#ff8622;}.cls-3{fill:#aeaeb2;}.cls-4{fill:#d6d6d6;}.cls-5{fill:#231f20;}.cls-6{fill:#636366;}.cls-7{fill:#2c2c2e;}.cls-8{fill:#3a3a3c;}.cls-9{fill:#575757;}</style></defs><g><path class="cls-7" d="M15.15,28.92c-1.81,.74-4.77,2.01-6.84,3.16,.09-.39,.29-.9,.75-1.39,1.05-1.13,3.07-1.75,5.82-1.77h.28Z"/><path class="cls-6" d="M10.37,27.54l-.05-.62c11.16-2.28,15.35,.48,16.02,.99l.02,.32c-1.84-1.13-4.72-1.48-7.58-1.48-3.61,0-7.16,.56-8.41,.79Z"/><path class="cls-9" d="M6.8,34.01c1.19-1.36,7.74-4.09,10.18-5.02,5.98,.39,9.7,2.69,9.85,6.23h.03c-5.14,1.96-14.44,.98-18.52-.42-1.33-.46-1.53-.78-1.54-.79Z"/><path class="cls-3" d="M11.05,26.04l1.61-1.57c1.11-.26,11.51-2.53,15.33,1.27l-1.33,1.49c-1.09-.8-5.33-3.1-15.6-1.19Z"/><path class="cls-7" d="M27.46,16.11c.3,.93,.9,2.81,1.21,3.7-1.3,.86-2.55,1.73-3.47,2.38l-1.88-3.77c.16-.17,.24-.43,.34-.75,.28-.91,.63-2.04,2.43-1.83,.47,.06,.92,.16,1.37,.27Z"/><polygon class="cls-2" points="28.3 26.49 28.36 26.75 27.09 28.12 27.07 27.87 28.3 26.49"/><path class="cls-3" d="M8.52,30.19c-.06,.07-.11,.14-.16,.2,.49-1.31,1.62-1.97,1.8-2.07,1.05-.3,12.73-2.23,16.38,.95,0,0,.02,0,.02,0,0,0,.02,.02,.04,.03,1.98,1.17,2.75,3.75,2.87,4.43-.29,.21-.59,.42-.92,.64-.31,.21-.65,.39-1,.56-.36-4.23-5.18-6.84-12.68-6.75-3,.02-5.14,.7-6.36,2.01Z"/><path class="cls-1" d="M27.35,28.93l1.44-1.56c.67,.59,2.42,2.38,2.62,4.88-.37,.31-.8,.66-1.29,1.02-.28-1.11-1.12-3.16-2.76-4.35Z"/><path class="cls-3" d="M32.09,31.62c-.45-2.77-2.51-4.59-2.99-4.97l-.06-.23c.94,.58,2.57,1.98,3.29,4.96-.07,.08-.16,.16-.24,.24Z"/><path class="cls-3" d="M22.89,17.69c-.19-.41-.19-1.39-.08-2.39,.21-.02,.45-.1,.74-.2,.59-.22,1.48-.54,2.64-.49,3.19,.16,5.42,1.22,6.75,1.86,.64,.31,1.02,.5,1.32,.5,.04,0,.08,0,.11,0-.18,.06-.48,.15-.93,.25-.6,.12-1.58-.28-2.74-.76-1.26-.51-2.83-1.14-4.52-1.35-2.41-.29-2.95,1.49-3.22,2.36-.02,.07-.05,.15-.07,.23Z"/><path class="cls-4" d="M34.65,16.82s0,.02,0,.03c0,0-.03,.02-.05,.02,.02-.02,.04-.03,.06-.05Z"/><path class="cls-1" d="M23.29,14.41c-.13,.05-.28,.1-.39,.13,.09-.84,1.58-2.97,2.24-3.84,5.22-1.93,9.68,.93,10.48,1.66-.27,.68-1.11,2.75-1.48,3.85-.2-.06-.57-.24-.9-.4-1.38-.66-3.7-1.77-7.03-1.93h-.31c-1.15,0-2.03,.31-2.62,.53Z"/><path class="cls-9" d="M32.91,30.71c-1.12-3.87-3.72-5.09-4.22-5.3-.95-1.04-2.3-1.7-3.81-2.09,.2-.14,.43-.3,.71-.5,2.15-1.52,6.13-4.34,8.37-4.97,.46-.12,.77-.22,.96-.32l.56,.51,.71,7.51h.05c-.47,.41-.89,.86-1.23,1.32-.57,.8-.84,1.43-1.09,2.04-.24,.57-.48,1.12-1,1.8Z"/><path class="cls-3" d="M38.74,20.07l-3.36-3.13c.51-1.61,1.09-3.33,1.36-3.98,.86,.55,3.2,2.24,3.55,3.16l-.48,1.2s-.08,.12-.09,.23l-.98,2.52Z"/><path class="cls-1" d="M36.89,24.99l-.59-6.19,2.73,2.55,.91-2.31c.19,1.02,.44,2.48,.43,3.56-.26,.18-.55,.36-.84,.55-.84,.54-1.77,1.15-2.64,1.84Z"/><path class="cls-9" d="M41.17,20.73c.27,0,.59-.06,.9-.22,0,.2-.07,.49-.29,.91-.1,.19-.35,.42-.69,.68-.02-.45-.06-.9-.13-1.37,.07,0,.14,0,.21,0Z"/><path class="cls-7" d="M34.94,11.03c2.42-.16,6.33-.14,7.35,1.09,.24,.3,.29,.64,.16,1.08-.62,1.98-1.23,2.51-1.5,2.59-.66-1.46-3.94-3.58-4.2-3.68l-.17-.05-.14,.07s-.02,0-.03,.02l-.03-.06c-.08-.12-.6-.57-1.44-1.06Z"/><path class="cls-8" d="M42.42,24.92c-.74,1.52-1.42,1.86-2.28,2.3-.63,.32-1.33,.68-2.15,1.5-.56,.56-.97,1.29-1.45,2.15-1.24,2.2-2.93,5.21-8.46,7.49-6.46,2.66-14.5,1.47-18.23,.35-2.33-.7-3.57-1.67-3.68-2.88-.05-.55,.06-.95,.19-1.23,1.2,1.17,7.15,2.44,12.91,2.44,3.79,0,7.5-.55,9.7-2.03,4.45-3,5.02-4.36,5.63-5.8,.24-.58,.5-1.16,1.01-1.89,1.02-1.41,2.85-2.59,4.32-3.53,1.22-.79,2.18-1.41,2.51-2.01,.06-.13,.11-.24,.15-.35,.33,.73,.6,1.96-.16,3.5Z"/><path class="cls-3" d="M42.69,14.69c.09,.81,.14,1.97-.06,3.39-.12,.9-.42,1.51-.87,1.77-.35,.2-.73,.16-.92,.11-.07-.43-.14-.84-.2-1.18-.08-.42-.17-.9-.18-1.07l.16-.4,.1-.26,.2-.52c.11,0,.23-.03,.37-.09,.52-.21,.98-.81,1.4-1.75Z"/></g><path class="cls-5" d="M42.79,20.32c-.02-.15-.05-.27-.09-.37,.32-.43,.55-1.01,.66-1.76,.37-2.69-.07-4.49-.18-4.89,.16-.62,.05-1.19-.32-1.64-1.66-2-8.12-1.37-9.15-1.26-2.14-.95-5.35-1.7-8.92-.34l-.1,.04-.06,.08c-.24,.31-2.29,3.03-2.44,4.27h0c-.13,.74-.45,3.11,.29,3.89l2.13,4.29c-.33,.23-.58,.4-.7,.48-4.97-.9-11.15,.59-11.51,.67l-.1,.02-2.62,2.56h.01c-.08,.08-.13,.18-.12,.29l.08,1.13c-.67,.43-2.67,1.97-2.16,4.8-.52,.33-.93,.64-1.19,.91-.1,.08-1.01,.8-.86,2.41,.14,1.54,1.56,2.72,4.2,3.52,2.11,.63,5.55,1.29,9.34,1.29,3.08,0,6.39-.43,9.38-1.66,5.76-2.37,7.53-5.51,8.82-7.8,.46-.81,.85-1.51,1.33-2,.73-.74,1.35-1.06,1.95-1.36,.91-.46,1.76-.89,2.62-2.63,1.28-2.62,.04-4.5-.3-4.93Zm-5.91,4.68l-.59-6.19,2.73,2.55,.9-2.31c.19,1.03,.44,2.47,.43,3.56-.27,.18-.55,.36-.84,.55-.83,.54-1.77,1.15-2.64,1.84Zm-11.68-2.81l-1.88-3.78c.15-.17,.24-.43,.33-.74,.28-.91,.63-2.04,2.42-1.83,.47,.06,.93,.16,1.38,.27,.29,.93,.89,2.81,1.21,3.7-1.31,.85-2.55,1.72-3.47,2.37Zm4.11-2.79c-.23-.67-.62-1.86-1-3.05,.74,.24,1.44,.52,2.1,.79,.65,.26,1.22,.5,1.74,.65-.89,.43-1.87,.99-2.84,1.61Zm4.11-2.19c-.59,.12-1.58-.28-2.74-.75-1.26-.51-2.83-1.15-4.52-1.35-2.41-.3-2.95,1.49-3.22,2.35-.02,.07-.05,.16-.07,.24-.18-.41-.19-1.4-.08-2.39,.21-.01,.45-.09,.74-.2,.59-.21,1.49-.53,2.64-.48,3.19,.15,5.42,1.22,6.75,1.86,.63,.3,1.02,.49,1.32,.49,.08,0,.14-.02,.21-.04-.18,.07-.49,.17-1.04,.29Zm1.21-.37s-.06,.03-.12,.06c.05-.02,.09-.06,.13-.09v.04Zm.73,.09c.51-1.62,1.09-3.33,1.36-3.98,.86,.54,3.19,2.24,3.55,3.16l-.47,1.21c-.05,.05-.08,.12-.09,.23l-.99,2.52-3.36-3.13Zm5.71,5.16c-.02-.44-.06-.9-.13-1.37,.07,0,.13,.01,.21,.01,.27,0,.58-.06,.89-.22,0,.2-.07,.49-.29,.91-.1,.19-.35,.42-.69,.68Zm1.54-4.02c-.12,.9-.42,1.51-.87,1.77-.35,.21-.72,.16-.92,.11-.07-.43-.14-.84-.21-1.18-.08-.42-.17-.9-.18-1.07l.16-.4,.1-.26h0l.2-.51c.11,0,.23-.03,.37-.09,.51-.22,.98-.81,1.4-1.76,.09,.81,.14,1.97-.06,3.39Zm-.34-5.96c.25,.3,.3,.64,.16,1.08-.61,1.98-1.23,2.51-1.5,2.59-.65-1.46-3.94-3.58-4.2-3.68l-.16-.05-.14,.07-.03,.02-.03-.05c-.07-.12-.59-.57-1.44-1.07,2.42-.16,6.32-.14,7.35,1.1Zm-17.15-1.42c5.23-1.93,9.68,.93,10.49,1.65-.28,.68-1.12,2.75-1.49,3.85-.2-.06-.56-.24-.89-.39-1.38-.66-3.7-1.77-7.04-1.93-.1,0-.21,0-.3,0-1.15,0-2.03,.32-2.62,.53-.13,.05-.27,.1-.38,.13,.09-.84,1.59-2.98,2.23-3.84Zm.46,12.12c2.14-1.51,6.12-4.33,8.37-4.97h0c.46-.11,.76-.22,.96-.32l.55,.52,.71,7.5h.05c-.46,.41-.89,.85-1.23,1.33-.57,.79-.84,1.42-1.1,2.03-.24,.57-.48,1.13-1,1.8-1.13-3.86-3.72-5.09-4.22-5.29-.95-1.04-2.29-1.7-3.8-2.1,.19-.13,.42-.29,.71-.5Zm4.52,10.46c-.28-1.12-1.12-3.16-2.77-4.35l1.45-1.56c.67,.59,2.42,2.38,2.61,4.88-.37,.32-.79,.66-1.29,1.03Zm-3.03-5.16l-.02-.25,1.22-1.37,.06,.26-1.27,1.37Zm5,3.51c-.45-2.78-2.5-4.58-2.99-4.98l-.06-.23c.93,.58,2.56,1.99,3.29,4.96-.08,.08-.16,.16-.24,.24Zm-19.43-7.16c1.12-.26,11.51-2.52,15.32,1.27l-1.33,1.5c-1.09-.79-5.33-3.11-15.6-1.2l1.61-1.57Zm13.7,3.77c-1.84-1.14-4.73-1.48-7.58-1.48-3.61,0-7.16,.56-8.42,.79l-.04-.62c11.15-2.27,15.35,.48,16.02,1l.02,.31Zm-16.2,.09c1.05-.29,12.72-2.23,16.38,.96,0,0,.01,0,.02,0,.01,0,.02,.02,.03,.03,1.98,1.17,2.75,3.76,2.88,4.43-.29,.2-.59,.41-.91,.63-.3,.21-.64,.39-1,.56-.36-4.23-5.18-6.84-12.68-6.76-3,.02-5.14,.7-6.35,2.01-.06,.07-.11,.14-.16,.2,.49-1.32,1.62-1.98,1.81-2.08Zm4.99,.6c-1.81,.74-4.78,2-6.84,3.16,.09-.38,.29-.89,.75-1.38,1.06-1.14,3.07-1.75,5.82-1.77,.08,0,.17,0,.25,0h.03Zm1.83,.07c5.98,.39,9.7,2.69,9.86,6.23h.03c-5.15,1.95-14.44,.98-18.53-.42-1.33-.46-1.52-.77-1.54-.78,1.19-1.37,7.74-4.08,10.18-5.03Zm25.44-4.06c-.74,1.52-1.42,1.86-2.29,2.3-.62,.31-1.33,.67-2.15,1.5-.55,.56-.97,1.3-1.45,2.15-1.24,2.2-2.94,5.21-8.46,7.48-6.47,2.66-14.5,1.47-18.23,.35-2.33-.7-3.57-1.67-3.68-2.88-.05-.56,.05-.96,.19-1.24,1.21,1.18,7.15,2.44,12.91,2.44,3.79,0,7.5-.55,9.7-2.03,4.44-3,5.02-4.36,5.63-5.8,.24-.57,.49-1.16,1.02-1.89,1.02-1.41,2.85-2.59,4.32-3.53,1.22-.78,2.18-1.4,2.5-2.01,.07-.13,.11-.24,.16-.35,.32,.73,.6,1.96-.16,3.51Z"/></svg>